<?xml version="1.0" encoding="UTF-8" standalone="no"?>
<svg
   xmlns:dc="http://purl.org/dc/elements/1.1/"
   xmlns:cc="http://creativecommons.org/ns#"
   xmlns:rdf="http://www.w3.org/1999/02/22-rdf-syntax-ns#"
   xmlns:svg="http://www.w3.org/2000/svg"
   xmlns="http://www.w3.org/2000/svg"
   xmlns:sodipodi="http://sodipodi.sourceforge.net/DTD/sodipodi-0.dtd"
   xmlns:inkscape="http://www.inkscape.org/namespaces/inkscape"
   width="744.09448"
   height="1052.3622"
   viewBox="0 0 595.27559 841.88975"
   version="1.1"
   id="svg4479"
   inkscape:version="0.48.3.1 r9886"
   sodipodi:docname="poster.svg"
   inkscape:export-filename="/home/sam/dev/aberlag/logo/poster2.png"
   inkscape:export-xdpi="90"
   inkscape:export-ydpi="90">
  <metadata
     id="metadata4629">
    <rdf:RDF>
      <cc:Work
         rdf:about="">
        <dc:format>image/svg+xml</dc:format>
        <dc:type
           rdf:resource="http://purl.org/dc/dcmitype/StillImage" />
        <dc:title></dc:title>
      </cc:Work>
    </rdf:RDF>
  </metadata>
  <defs
     id="defs4627" />
  <sodipodi:namedview
     pagecolor="#000000"
     bordercolor="#666666"
     borderopacity="1"
     objecttolerance="10"
     gridtolerance="10"
     guidetolerance="10"
     inkscape:pageopacity="0"
     inkscape:pageshadow="2"
     inkscape:window-width="1366"
     inkscape:window-height="721"
     id="namedview4625"
     showgrid="false"
     borderlayer="true"
     inkscape:zoom="0.48613591"
     inkscape:cx="265.94252"
     inkscape:cy="555.92661"
     inkscape:window-x="0"
     inkscape:window-y="0"
     inkscape:window-maximized="1"
     inkscape:current-layer="svg4479" />
  <g
     id="g5739"
     transform="matrix(0.75,0,0,0.75,57.637795,-150.23775)">
    <path
       inkscape:connector-curvature="0"
       id="path4483"
       d="m 318.375,232.88977 c -3.39,5.04 -7.1,9.915 -9.7,15.425 -6.86,13.97 -10.565,29.29 -12.675,44.65 -0.98,7.3 -2.085,14.61 -2.075,22 -0.05,21.12 0.285,42.255 -0.125,63.375 -14.48,5.03 -27.555,14.36 -36.275,27.05 -14.79,-6.33 -29.33,-13.225 -44,-19.825 -11.34,-5.56 -23.785,-9.34 -33.625,-17.55 -49.95,-36.76 -99.92,-73.48 -149.9,-110.2 -4.89,-3.55 -9.42,-7.695 -15,-10.175 0.82,3.52 2.9,6.51 4.6,9.65 14.73,26.52 30.03,52.745 44.75,79.275 1.25,2.48 3.65,4.015 6.15,5.025 26.66,11.56 53.23,23.315 79.9,34.875 12.1,4.81 22.555,12.755 33.775,19.225 9.24,5.77 18.685,11.175 27.875,17.025 1.73,1.17 3.84,2.295 4.45,4.475 1.31,3.89 -0.175,7.94 -1.225,11.7 -10.62,-3.57 -21.255,-7.11 -31.875,-10.65 -6.56,-2.21 -13.28,-4.06 -19.45,-7.25 -8.78,-4.57 -17.79,-8.675 -26.4,-13.575 -8.67,-4.85 -17.82,-8.795 -26.5,-13.625 -10.19,-5.71 -20.825,-10.59 -31.175,-16 10.37,19.32 21.38,38.28 31.95,57.5 1.23,2.87 4.65,2.945 7.3,3.425 16.3,2.07 32.495,4.805 48.775,6.975 3.98,0.49 7.93,1.33 11.7,2.7 13.54,4.99 26.91,10.39 40.5,15.25 6.42,1.6 6.45,9.38 8.9,14.35 -4.37,3.28 -8.78,8.73 -14.9,7.3 -15.37,-2.61 -30.78,-4.97 -46.15,-7.5 -14.13,-1.96 -27.755,-6.505 -41.025,-11.575 1.1,4.24 4.78,7.04 7.05,10.65 7.27,10.5 15.195,20.535 22.275,31.175 -6.3,-4.42 -12.67,-8.91 -17.85,-14.65 -4.55,-5.5 -11.17,-8.655 -16.1,-13.775 -3.61,-3.87 -8.38,-6.26 -13.25,-8.15 -3.04,2.83 -5.63,6.095 -8.35,9.225 -2.03,2.68 -5.71,1.955 -8.6,2.675 -2.44,0.26 -4.165,2.14 -5.825,3.75 -2.7,2.77 -5.63,5.585 -6.95,9.325 -1.19,3.09 -1.395,6.645 -3.525,9.325 -4.01,5.26 -8.76,9.915 -12.9,15.075 -2.16,2.54 -1.65,6.06 -2.05,9.15 -0.33,5.45 -3.785,9.93 -5.775,14.85 -2.29,5.69 -6.79,10.635 -7.2,16.975 -0.43,6.39 4.655,11.385 9.775,14.325 3.83,2.37 8.34,0.52 12.25,-0.6 18.54,14.13 35.875,29.735 53.825,44.575 4.53,3.92 9.3,7.55 14.3,10.85 2.53,1.47 3.02,4.53 4.1,7 1.12,3.19 3.575,5.735 6.425,7.475 4.71,2.76 10.505,-1.34 15.175,1.6 3.94,2.23 7.965,4.32 12.175,6 9.77,3.91 14.645,14.24 23.525,19.45 6.43,3.96 13.435,7.925 17.425,14.575 1.43,5.27 -5.155,7.54 -6.925,11.75 -2.82,6.34 2.935,12.495 1.625,18.925 -1.26,4.19 -4.77,7.13 -6.65,11 -1.47,4.02 -0.555,8.98 -3.625,12.35 -3.45,2.86 -9.885,0.53 -11.925,5.35 -1.47,6.38 2.22,12.42 3.8,18.45 0.92,4.53 5.915,6.145 9.975,6.375 3.66,-0.19 7.175,-1.62 10.875,-1.45 8.35,0.2 16.69,0.23 25.05,0 2.94,-0.14 6.025,-0.045 8.775,-1.275 3.69,-1.64 6.445,-4.75 9.025,-7.75 1.67,-2 3.525,-4.115 3.775,-6.825 0.95,-9.41 3.82,-18.595 3.5,-28.125 2.93,0.39 5.87,1.085 8.85,0.825 2.68,-2.24 4.675,-5.245 7.625,-7.175 7.04,-4.7 16.08,-5.645 24.25,-4.025 6.41,1.54 10.33,7.245 14.6,11.775 4.88,-4.69 9.015,-11.945 16.525,-12.275 5.91,0.36 11.895,1.13 17.475,3.2 3.76,1.31 6.55,4.25 9.4,6.9 3.17,3.3 8.095,0.945 12.025,0.775 -0.28,9.52 2.49,18.725 3.5,28.125 0.21,2.99 2.425,5.19 4.275,7.35 2.38,2.64 4.695,5.625 8.125,6.975 6.08,2.56 12.81,1.26 19.2,1.7 7.71,0.55 15.58,-1.19 23.15,0.95 4.72,0.95 11.505,-0.67 12.725,-6.05 1.61,-5.88 4.905,-11.67 4.025,-17.95 -1.44,-4.7 -7.23,-3.555 -10.85,-5.025 -3.67,-1.94 -3.61,-6.635 -4.2,-10.175 -0.55,-5.83 -6.585,-9.15 -7.575,-14.85 -0.46,-5.52 3.32,-10.535 2.45,-16.075 -0.72,-3.96 -4.435,-6.13 -6.675,-9.15 -1.39,-1.62 -1.65,-4.24 -0.2,-5.9 4.41,-5.72 10.645,-9.645 16.775,-13.275 7.21,-4.3 11.73,-11.755 18.45,-16.675 3.89,-2.77 8.61,-3.97 12.75,-6.3 2.36,-1.22 4.53,-2.86 7.15,-3.5 4.56,-0.41 9.82,1.87 13.8,-1.35 4.11,-2.69 5.3,-7.64 7.3,-11.8 2.45,-2.92 6.16,-4.425 9.05,-6.875 20.57,-16.52 39.95,-34.495 61,-50.425 3.71,0.96 7.81,2.815 11.55,0.925 6.71,-3.2 12.83,-10.76 9.8,-18.55 -3.67,-8.01 -8.115,-15.675 -11.525,-23.825 -1.67,-4.26 0.075,-9.475 -2.875,-13.275 -4.01,-5.25 -8.925,-9.75 -12.825,-15.1 -2.87,-3.76 -2.47,-8.97 -5.3,-12.75 -2.25,-3.04 -4.935,-5.745 -7.775,-8.225 -2.9,-2.35 -6.995,-1.235 -10.225,-2.725 -3.88,-2.84 -5.815,-7.73 -10.025,-10.2 -5.6,1.07 -10.215,4.8 -14.175,8.7 -4.55,4.5 -10.455,7.425 -14.625,12.325 -4.66,5.32 -10.375,9.545 -16.175,13.525 8.84,-12.76 18.055,-25.27 27.275,-37.75 0.25,-0.6 0.775,-1.8 1.025,-2.4 -9.89,3.74 -19.995,7.015 -30.275,9.575 -17.55,3.36 -35.28,5.62 -52.85,8.85 -2.65,0.4 -5.32,1.145 -8,0.875 -4.27,-1.5 -7.595,-4.8 -11.125,-7.5 1.4,-3.7 2.5,-7.54 4.25,-11.1 0.74,-1.89 2.815,-2.52 4.525,-3.25 13.64,-4.88 27.09,-10.31 40.7,-15.3 3.75,-1.38 7.68,-2.18 11.65,-2.7 14.05,-1.81 28,-4.205 42.05,-6.075 3.86,-0.61 7.84,-0.77 11.6,-1.95 1.7,-0.53 2.35,-2.39 3.25,-3.75 10.19,-18.81 21.035,-37.265 31.125,-56.125 -9.53,4.94 -19.245,9.52 -28.675,14.65 -10.77,6.05 -22.125,11 -32.875,17.1 -10.71,5.27 -21.075,11.39 -32.325,15.5 -13.86,4.61 -27.695,9.24 -41.575,13.8 -1,-3.75 -2.46,-7.755 -1.2,-11.625 0.85,-2.58 3.42,-3.84 5.55,-5.2 17.1,-10.33 34.035,-20.935 51.175,-31.175 11.03,-5.4 22.475,-9.9 33.675,-14.95 19.1,-8.35 38.22,-16.7 57.3,-25.1 2.74,-1.09 4.255,-3.75 5.625,-6.2 14.33,-25.91 29.275,-51.475 43.625,-77.375 1.69,-3.07 3.685,-6.035 4.575,-9.475 -5.13,2.29 -9.375,5.995 -13.825,9.325 -52.06,38.26 -104.165,76.495 -156.175,114.825 -2.83,1.97 -5.875,3.635 -9.025,5.025 -21.07,9.2 -41.725,19.3 -62.925,28.2 -3.25,-3.81 -6.29,-7.87 -10.15,-11.1 -8.23,-6.82 -17.2,-13.39 -27.85,-15.7 -0.15,-17.16 -0.05,-34.315 -0.05,-51.475 0.06,-5.32 -0.92,-10.58 -1,-15.9 -0.39,-13.19 -2.61,-26.285 -6,-39.025 -3.51,-14.08 -9.705,-27.545 -18.625,-39.025 l -1,0 z M 199.7,492.96477 c 2.79047,0.0544 5.5675,0.755 8.275,1.4 9.92,2.42 20.06,3.865 29.9,6.625 2.13,5.8 3.365,11.865 4.925,17.825 -11.59,1.32 -23.235,1.895 -34.825,3.125 -8.51,-0.62 -17.03,-1.56 -25.5,-2.55 -4.3,-2.55 -7.775,-6.245 -11.675,-9.325 -4.67,-4.02 -9.83,-7.47 -14.1,-11.95 13.35,-2.04 26.82,-3.145 40.2,-4.975 0.935,-0.15 1.86984,-0.19313 2.8,-0.175 z m 240.6,0 c 0.92375,-0.0186 1.8475,0.0275 2.775,0.175 13.05,1.89 26.225,2.69 39.225,4.95 -4.8,5.03 -10.655,8.815 -15.825,13.425 -3.47,2.66 -6.445,6.22 -10.475,8 -10.66,0.95 -21.4,3.33 -32.1,1.65 -8.91,-0.77 -17.835,-1.355 -26.725,-2.375 1.57,-5.95 2.805,-11.985 4.925,-17.775 9.86,-2.8 20.035,-4.225 29.975,-6.675 2.6925,-0.645 5.45375,-1.31922 8.225,-1.375 z m -200.275,46.775 c 3.03625,0.009 6.07,0.1 9.1,0.2 2.44,-0.27 3.535,2.25 4.425,4.05 1.77,4.57 4.28,8.76 6.7,13 -1.18,1.8 -2.18,4.065 -4.4,4.775 -3.63,1.38 -7.22,2.94 -11,3.9 -3.07,-0.75 -4.76,-4.055 -7.85,-4.825 -2.92,0.59 -5.95,2.545 -8.9,0.875 -3.25,-1.97 -6.36,-4.36 -8.9,-7.2 -1.37,-2.81 -2.05,-5.945 -3.9,-8.525 5.31,-1.72 10.155,-4.76 15.625,-6 3.025,-0.205 6.06375,-0.25875 9.1,-0.25 z m 161.725,0.05 c 1.4075,-0.009 2.8175,-0.0125 4.225,0 6.78,0 12.425,4.245 18.675,6.275 -1.61,1.31 -2.995,2.925 -3.525,4.975 -1.24,5.1 -6.14,8.095 -10.35,10.625 -3.08,2.13 -6.3,-0.935 -9.5,-0.725 -2.31,1.33 -4.285,3.16 -6.375,4.8 -5.2,-2.49 -12.61,-2.595 -15.1,-8.675 3.25,-5.64 5.525,-11.825 9.275,-17.175 4.2225,0.007 8.4525,-0.0738 12.675,-0.1 z m -126.85,36.95 c 6.25,5.86 12.285,11.98 18.925,17.4 0.34,4.68 0.225,9.385 0.075,14.075 -2.2,-1.2 -4.48,-2.25 -6.45,-3.8 -2.01,-1.98 -2.955,-4.895 -5.375,-6.475 -2.99,-2.04 -6.55,-3.44 -8.7,-6.5 -3.4,-4.6 -8.265,-7.74 -12.525,-11.45 4.66,-1.17 9.34,-2.27 14.05,-3.25 z m 90.05,0.05 c 4.48,0.77 8.92,1.845 13.3,3.075 -4.26,3.8 -9.23,6.915 -12.65,11.575 -3.05,4.47 -9.38,5.215 -11.9,10.175 -1.73,3.41 -5.425,4.895 -8.625,6.575 -0.04,-4.29 -0.55,-8.645 0.3,-12.875 3.01,-3.97 7.075,-6.975 10.725,-10.325 3.02,-2.66 5.67,-5.71 8.85,-8.2 z m -172.225,43.075 c 3.46094,-0.0454 6.98,1.2025 10.225,2.275 0.03,3.48 0.655,7.255 -1.175,10.425 -2.11,4.12 -6.005,8.39 -11.125,7.45 -1,-3.93 -5.175,-5.965 -5.925,-9.975 -0.85,-3.27 -0.15,-7.755 3.35,-9.175 1.50938,-0.68125 3.07684,-0.97939 4.65,-1 z m 253,0 c 1.4974,-0.039 3,0.15625 4.475,0.725 3.72,0.96 4.98,5.43 4.2,8.8 -0.57,4.32 -4.815,6.615 -6.225,10.575 -5.15,1.07 -8.705,-3.345 -10.925,-7.325 -1.83,-3.19 -1.205,-6.975 -1.225,-10.475 3.11438,-0.97625 6.40572,-2.21412 9.7,-2.3 z m -77.8,50.575 c 4.25565,-0.17733 8.56,2.07 10.625,5.85 2.03,4.95 1.495,10.42 1.425,15.65 -10.48,-1.71 -21.105,-2.42 -31.475,-4.7 -5.74,-1.05 -8.59,-6.685 -12.7,-10.175 -10.32,-0.3 -20.64,-0.145 -30.95,-0.125 -2.22,-0.24 -3.415,1.795 -4.725,3.175 -2.61,3.04 -5.49,6.35 -9.65,7.1 -10.37,2.3 -20.98,3.005 -31.45,4.725 0.1,-5.79 -1.15,-12.42 2.65,-17.35 2.87,-3.78 7.985,-4.78 12.425,-3.7 6.31,0.74 10.355,7.34 16.925,7.1 1.75,-0.16 3.99,0.475 5.35,-0.975 1.22,-1.91 1.495,-4.235 2.125,-6.375 0.93,1.73 1.87,3.45 2.8,5.2 12.14,0.03 24.27,0.03 36.4,0 0.93,-1.75 1.845,-3.485 2.775,-5.225 0.56,2.47 1.285,4.92 2.525,7.15 3.3,0.11 6.87,0.67 9.95,-0.85 4.34,-2.18 8.07,-5.93 13.15,-6.25 0.59875,-0.12625 1.21705,-0.19966 1.825,-0.225 z"
       style="fill:#0d0906" />
    <path
       id="path4485"
       d="m 319.07,236.43977 c 6.71,8.08 11.32,17.7 14.79,27.56 4.41,15.28 7.73,30.99 8.36,46.93 1.02,6.93 1.16,13.96 -0.04,20.87 -0.48,15.44 0.08,30.9 -0.25,46.35 -3.39,-0.74 -6.65,-1.93 -9.98,-2.84 -4.27,-0.8 -8.64,-0.28 -12.95,-0.42 0.01,-46.15 -0.11,-92.3 0.07,-138.45 z"
       inkscape:connector-curvature="0"
       style="fill:#fefefe" />
    <path
       id="path4489"
       d="m 599.49,268.19977 c 6.75,-4.86 13.26,-10.1 20.38,-14.43 -7.18,15.36 -16.48,29.59 -24.53,44.49 -5.79,10.75 -12.34,21.07 -17.98,31.9 -2.04,3.78 -4.12,8.13 -8.37,9.82 -21.95,9.69 -44.02,19.1 -65.93,28.88 -10.28,4.66 -20.98,8.48 -30.73,14.24 -10.77,6.58 -21.46,13.27 -32.3,19.7 -5.71,3.48 -11.16,7.51 -17.48,9.83 -2.19,5.95 -1.77,12.69 1.54,18.14 15.31,-4.75 30.51,-9.84 45.65,-15.11 16.66,-7.18 32.24,-16.57 48.57,-24.45 12.37,-5.91 23.91,-13.54 36.8,-18.34 -2.82,6.34 -6.6,12.17 -9.86,18.28 -5.96,10.72 -11.88,21.47 -17.98,32.11 -1.58,3.03 -5.32,3.44 -8.34,3.88 -15.68,1.95 -31.23,4.75 -46.92,6.63 -9.11,1 -17.43,5.03 -25.91,8.19 -8.96,3.51 -18.02,6.76 -27.03,10.13 -2.17,0.87 -4.72,1.78 -5.57,4.2 -1.79,4.09 -3.71,8.25 -4.09,12.75 2.8,3.66 6.99,6.19 11.08,8.22 5.04,0.85 10.08,-1.01 15.07,-1.65 14.71,-2.66 29.53,-4.68 44.26,-7.25 9.34,-1.5 17.94,-5.76 27.24,-7.46 -4.56,8.17 -10.7,15.28 -16.02,22.94 -2.86,4 -5.32,8.36 -9,11.7 -13.04,-0.89 -25.96,-3 -38.95,-4.29 -5.45,-0.51 -10.68,1.29 -15.94,2.32 -8.35,1.8 -16.84,3.09 -25.01,5.61 -2.12,0.48 -2.49,2.89 -3.07,4.63 -1.43,5.43 -3.11,10.82 -3.86,16.4 10.11,1.88 20.43,2 30.63,3.16 9.1,1.19 18.11,-1.31 27.2,-1.38 -5.9,6.5 -13.26,11.37 -19.84,17.12 -2.27,1.99 -4.64,3.86 -7.13,5.57 -6.76,-1.97 -12.76,-6.7 -20.05,-6.63 -5.04,-0.06 -10.08,-0.34 -15.11,-0.07 -2.53,-0.1 -4.19,2.04 -5.98,3.45 0.89,-6.66 0.87,-13.42 1.9,-20.06 0.71,-5.31 7.61,-7.06 8.12,-12.4 -0.19,-7.01 -0.56,-14.03 -1.38,-21 0.56,-3.9 5.19,-5.47 6.26,-9.16 0.15,-6.45 -3.78,-11.92 -6.24,-17.61 -1.74,-4.78 0.54,-9.72 1.15,-14.49 0.85,-5.99 -0.68,-11.94 -1.67,-17.81 -1.29,-7.89 -5.96,-14.58 -8.86,-21.89 21.63,-10.09 43.39,-19.92 65.13,-29.77 6.68,-2.97 12.32,-7.67 18.16,-11.97 44,-32.36 87.99,-64.72 131.99,-97.07 z"
       inkscape:connector-curvature="0"
       style="fill:#f30202" />
    <path
       id="path4491"
       d="m 20.01,253.76977 c 2.78,1.57 5.46,3.32 8.01,5.23 48.35,35.59 96.7,71.19 145.08,106.74 5.27,3.8 10.3,8.04 16.23,10.81 22.17,10.31 44.64,19.96 66.65,30.61 -1.55,3.96 -3.39,7.78 -5.21,11.61 -3.38,6.86 -4.21,14.57 -5.41,22.03 -1.02,6.45 3.01,12.65 1.43,19.05 -2.83,5.47 -7.12,10.54 -7.48,16.98 -1.1,4.7 4.81,6.25 6.2,10.04 0.9,7.34 -1.03,14.66 -1.09,21.98 0,6.04 8.51,6.99 8.5,12.96 0.58,5.75 0.99,11.51 1.21,17.28 -6.29,-1.35 -12.75,-1.13 -19.14,-1.15 -7.91,-0.19 -14.52,4.84 -21.85,7.02 -4.2,-3.14 -8.23,-6.5 -12.24,-9.89 -5.05,-4.32 -10.62,-8.08 -15.02,-13.12 9.75,0.01 19.42,2.75 29.17,1.35 9.93,-1.22 20.07,-0.98 29.82,-3.35 -1.35,-6.35 -2.27,-12.92 -5.08,-18.82 -0.55,-1.68 -2.45,-1.9 -3.85,-2.45 -9.75,-3.01 -19.95,-4.04 -29.81,-6.61 -7.69,-2.01 -15.54,0.26 -23.25,0.88 -7.68,0.65 -15.28,1.98 -22.96,2.64 -3.2,0.29 -4.78,-3.13 -6.48,-5.24 -6.57,-9.99 -14.41,-19.12 -20.47,-29.46 9.8,2.02 19.01,6.25 28.92,7.82 17.71,2.9 35.45,5.57 53.13,8.63 4.62,1.19 8.49,-2.07 11.96,-4.58 1.32,-1.16 3.06,-2.15 3.66,-3.88 -0.58,-4.57 -2.35,-8.93 -4.41,-13.02 -1.15,-2.47 -4,-3.18 -6.31,-4.13 -13.65,-4.83 -27.05,-10.33 -40.64,-15.32 -5.25,-1.95 -10.86,-2.51 -16.37,-3.29 -14.3,-1.9 -28.54,-4.3 -42.84,-6.16 -2.45,-0.47 -5.61,-0.58 -6.92,-3.1 -6.5,-11.26 -12.8,-22.65 -19.17,-34 -3.07,-5.64 -6.61,-11.03 -9.1,-16.97 12.64,4.76 24.04,12.13 36.18,17.97 10.81,4.98 20.95,11.26 31.71,16.34 7.63,3.64 14.95,8.07 23.1,10.53 13.46,4.03 26.56,9.15 40.05,13.06 2.76,-5.23 4.24,-11.84 1.51,-17.38 -2.24,-2.27 -5.55,-3.01 -8.16,-4.77 -14.38,-8.99 -28.92,-17.7 -43.36,-26.58 -3.45,-2.08 -7.12,-3.77 -10.81,-5.35 -27.15,-11.77 -54.17,-23.84 -81.38,-35.47 -3.1,-1.33 -6.44,-2.87 -8.07,-6.02 -12.43,-21.88 -24.88,-43.75 -37.27,-65.65 -2.83,-5.25 -6.06,-10.29 -8.37,-15.8 z"
       inkscape:connector-curvature="0"
       style="fill:#f30202" />
    <path
       id="path4493"
       d="m 305.24,258.75977 c 0.45,1.3 1.43,2.72 0.45,4.1 -3.81,12.01 -6.43,24.4 -7.6,36.95 -0.27,5.35 0.06,10.71 -0.08,16.07 -0.09,4.67 -1.14,9.27 -1.02,13.95 0.06,15.41 0.06,30.82 -0.04,46.23 0.06,1.37 -1.12,2.34 -1.69,3.48 -0.59,-21.53 -0.1,-43.08 -0.29,-64.62 0.77,-13.08 2.23,-26.18 5.16,-38.98 1.27,-5.85 3.79,-11.34 5.11,-17.18 z"
       inkscape:connector-curvature="0"
       style="fill:#fefefe" />
    <path
       id="path4495"
       d="m 369.4,450.08977 c 8.18,2.6 16.44,6.4 21.95,13.24 3.59,4.42 5.39,9.94 6.77,15.4 -4.04,2.79 -6.2,7.31 -9.56,10.73 -14.84,10.25 -32.99,13.31 -49.81,18.8 12.12,-0.22 23.85,-3.77 35.3,-7.44 6.51,-2.07 12.17,-5.97 18.06,-9.31 -0.15,3.75 -1.24,7.61 0.07,11.28 1.04,3.14 1.32,7.36 -1.58,9.61 -4.78,3.43 -10.29,5.69 -15.05,9.17 3.25,-1.01 6.35,-2.4 9.49,-3.69 -1.04,7.64 -2.05,15.32 -1.99,23.06 -0.07,2.43 0.2,5.42 -1.93,7.13 -8.07,5.22 -16.86,9.2 -25.3,13.75 4.69,-0.6 8.81,-3.13 13.35,-4.3 -1.94,5.95 -4.24,11.79 -6.78,17.5 -0.84,2.06 -2.71,3.36 -4.33,4.74 -4.53,3.57 -8.06,8.2 -12.57,11.77 -3.7,2.92 -6.87,6.43 -10.51,9.42 -5.55,4.53 -10.09,10.25 -16.17,14.14 1.75,-8.5 4.61,-16.72 6.82,-25.11 4.18,-15.7 8.74,-31.3 13.13,-46.95 1.23,-3.9 1.43,-8.24 3.63,-11.76 5.2,-2.93 11.47,-3.23 16.69,-6.21 -7.57,1.02 -14.86,3.4 -22.26,5.19 -4.69,1.28 -9.52,1.98 -14.15,3.44 5.21,0.6 10.34,-0.83 15.42,-1.83 -7.08,26.5 -14.59,52.87 -21.56,79.39 -7.17,-3.94 -11.72,-10.98 -18.06,-15.93 -4.21,-3.4 -7.84,-7.45 -12.1,-10.79 -4.17,-3.79 -8.89,-7.53 -10.86,-13.01 -2.21,-5.21 -3.07,-11.06 -6.39,-15.74 -3.59,-3.26 -8.16,-5.17 -12.02,-8.07 -0.45,-9.98 -1.5,-19.92 -2.23,-29.88 3.21,1.64 6.39,3.65 10.06,4.01 -6.04,-3.61 -12.95,-6.03 -17.88,-11.27 -0.16,-6.59 0.81,-13.15 0.89,-19.74 6.92,3.15 13.71,6.68 21.01,8.91 12.04,3.57 24.33,6.24 36.69,8.42 4.17,0.72 8.37,2.07 12.65,1.4 -4.35,-1.37 -8.86,-2.21 -13.38,-2.75 0.8,-0.49 1.6,-0.96 2.42,-1.43 1.75,0.25 3.51,0.43 5.28,0.57 2.23,-3.99 3.22,-9.79 8,-11.5 2.1,3.93 4.29,7.81 6.67,11.58 4.85,-0.22 9.49,-1.71 14.2,-2.78 -1.9,-2.22 -4.43,-3.68 -7.05,-4.87 -0.92,-2.5 -1.98,-4.96 -2.6,-7.55 0.03,-1.67 1.74,-2.29 3.11,-2.49 8.71,-1.8 16.11,-7.11 23.07,-12.37 5.92,-5.12 12.22,-11.11 20.55,-11.3 0.97,5.45 3.95,10.68 3.22,16.33 -1.97,5.68 -6.27,10.07 -9.98,14.66 3.37,-1.54 7.9,-1.9 9.73,-5.57 0.51,-1.41 1.6,-0.47 2.12,0.39 4.12,-3.02 6.4,-7.69 9.51,-11.61 1.86,-2.35 0.49,-5.42 -0.39,-7.89 -3.6,-8.82 -12.03,-14.67 -20.71,-17.83 -2.22,-1.11 -4.27,0.54 -5.71,2.07 -4.76,4.85 -10.59,8.5 -16.58,11.63 6.07,-6.17 14.95,-9.17 19.63,-16.76 z"
       inkscape:connector-curvature="0"
       style="fill:#fefefe" />
    <path
       id="path4497"
       d="m 253.5,458.22977 c 5.08,-3.85 11.05,-7.28 17.6,-7.34 1.81,1.14 3.21,2.79 4.75,4.25 6.32,6.22 14.31,10.29 21.29,15.67 -7.79,-3.48 -15.02,-8.14 -21.8,-13.27 -2.47,-1.87 -4.67,-5.83 -8.31,-4.42 -10.1,3.42 -18.38,11.75 -21.82,21.82 -1.39,3.56 2.62,5.72 4.18,8.38 2.15,2.68 3.98,7.8 8.29,6.61 2.67,2.78 6.09,4.67 9.73,5.9 -3.65,-5.11 -9.12,-9.41 -10.36,-15.86 0.43,-5.33 2.44,-10.37 4.09,-15.4 11.07,1.31 18.01,10.83 26.81,16.5 5.13,2.94 10.33,6.01 16.15,7.36 1.27,0.31 3.24,0.87 3,2.59 -0.47,2.69 -0.91,6 -3.4,7.62 -2.11,1.47 -4.21,2.96 -6.14,4.66 2.83,0.63 5.66,1.28 8.53,1.68 -0.82,0.49 -1.63,0.98 -2.44,1.47 -14.94,-3.25 -29.79,-7.11 -44.22,-12.18 -3.96,-1.56 -8.61,-2.96 -10.7,-7.01 -1.95,-3.34 -4.37,-6.42 -7.51,-8.71 1.09,-8.12 5.57,-15.6 12.28,-20.32 z"
       inkscape:connector-curvature="0"
       style="fill:#fefefe" />
    <path
       inkscape:connector-curvature="0"
       id="path4499"
       d="m 109.775,463.73977 c -2.35,1.94 -4.35,4.25 -6,6.8 2.48,0.48 5.275,0.5 7.325,2.2 3.05,2.56 6.72,5.315 7.1,9.625 -2.88,1.59 -5.6,3.53 -7.8,6 -3.54,4.13 -9.42,3.605 -14.3,4.325 -0.36,-3.97 -1.28,-8.37 0.6,-12.1 2.56,-2.87 5.725,-5.32 7.325,-8.95 -4.93,1.68 -8.75,5.275 -12.3,8.925 -8.01,7.14 -13.645,16.36 -20.825,24.25 -2.45,3.08 -5.595,5.66 -7.475,9.15 -1.23,3.38 0.875,7.245 -0.925,10.525 -4.1,7.79 -7.5,15.91 -11.8,23.6 -3.58,9.57 7.65,19.86 17.1,16.7 l -6.75,-1.325 c 1.55,-1.82 2.96,-3.75 4.35,-5.7 2.92,2.08 5.15,4.895 7.8,7.275 l -0.8,-0.825 0.55,0.3 c 1.22,-1.08 2.445,-2.15 3.675,-3.2 14.66,13.04 30.075,25.225 45.025,37.925 5.27,4.56 11.16,8.415 15.8,13.675 -0.86,1.04 -1.715,2.075 -2.575,3.125 2.71,2.51 7.14,3.85 8,7.85 0.93,4.09 3.24,8.155 7.2,9.975 4.2,1.88 8.62,-1.595 12.9,-0.225 12.6,3.45 23.53,11.5 32.2,21.1 1.36,1.19 2.635,2.94 4.625,2.95 10.87,0.89 22.11,1.53 32.15,6.2 7.34,3.23 12.92,9.55 16.5,16.6 2.31,5.13 2.885,10.835 3.425,16.375 0.37,6.02 1.46,12.025 1,18.075 -0.46,6.7 -1.53,13.335 -2.75,19.925 1.6,2.99 3.685,6.43 7.575,6.35 1.55,-5 2.87,-10.07 3.85,-15.2 1.23,-6.39 0.135,-12.885 -0.775,-19.225 -0.83,-5.71 -3.775,-11 -3.775,-16.85 0.04,-4.87 -0.46,-9.98 1.55,-14.55 2.21,-3.7 6.1,-6.635 10.45,-7.075 5.88,-0.3 11.405,2.305 16.125,5.575 2.79,1.97 6.315,2.49 9.625,1.8 2.3,-3.6 2.48,-8.29 1.2,-12.3 -1.33,-0.78 -2.585,-1.665 -3.775,-2.625 -16.86,-14.48 -33.73,-28.92 -50.8,-43.15 -5.7,-4.84 -11.775,-9.285 -16.875,-14.775 3.7,-5.6 3.98,-12.455 3.55,-18.925 -0.48,-6.2 1.395,-12.565 -0.475,-18.625 -2.51,-4.15 -7.41,-5.98 -10.3,-9.8 -1.28,-2.61 -1.625,-5.865 -4.275,-7.575 -17.58,-14.76 -35.26,-29.405 -53,-43.975 -8.34,-6.98 -17.87,-12.67 -24.95,-21.05 -4.2,-4.23 -9.635,-6.965 -13.725,-11.325 -3.15,-3.54 -7.47,-5.595 -11.55,-7.825 z m 82.95,156.125 c 3.46094,-0.0454 6.98,1.2025 10.225,2.275 0.03,3.48 0.655,7.255 -1.175,10.425 -2.11,4.12 -6.005,8.39 -11.125,7.45 -1,-3.93 -5.175,-5.965 -5.925,-9.975 -0.85,-3.27 -0.15,-7.755 3.35,-9.175 1.50938,-0.68125 3.07684,-0.97939 4.65,-1 z"
       style="fill:#f3f306" />
    <path
       inkscape:connector-curvature="0"
       id="path4501"
       d="m 529.225,463.76477 c -8.31,3.23 -13.595,10.64 -20.875,15.4 -4.7,2.9 -7.415,7.955 -11.875,11.125 -24.23,18.62 -47.465,38.475 -70.925,58.025 -2.44,1.63 -2.53,4.745 -3.8,7.125 -2.91,3.79 -7.73,5.69 -10.3,9.8 -1.28,3.4 -0.83,7.14 -0.65,10.7 0.42,5.64 -0.03,11.3 0.2,16.95 0.03,3.62 1.94,6.79 3.55,9.9 -5.78,6.13 -12.62,11.1 -19,16.55 -15.91,13.4 -31.835,26.8 -47.525,40.45 -1.89,1.55 -3.98,2.8 -5.9,4.3 l -0.475,0.925 c -0.01,3.78 1.445,7.385 2.525,10.975 0.71,-0.01 2.155,-0.015 2.875,-0.025 6.54,0.33 10.655,-6.16 16.925,-7.05 5.02,-1.52 10.775,-0.35 14.325,3.65 4.36,4.18 3.65,10.725 3.75,16.225 0.16,6.26 -2.885,11.96 -3.825,18.05 -0.95,6.34 -1.985,12.835 -0.775,19.225 0.98,5.11 2.29,10.155 3.85,15.125 3.88,0.11 5.985,-3.3 7.575,-6.3 -1.27,-6.95 -2.43,-13.94 -2.8,-21 -0.33,-5.7 0.71,-11.355 1.05,-17.025 0.66,-6.5 1.335,-13.355 4.875,-19.025 3.57,-5.91 8.62,-11.105 15,-13.925 10.03,-4.68 21.265,-5.345 32.125,-6.225 2.24,-0.03 3.645,-2.075 5.175,-3.425 8.58,-9.43 19.405,-17.27 31.825,-20.65 4.47,-1.36 9.28,2.555 13.5,-0.125 3.6,-1.98 5.545,-5.725 6.475,-9.575 0.76,-3.83 4.73,-5.265 7.65,-7.125 -0.64,-1.33 -1.26,-2.64 -1.9,-3.95 3.51,-4.24 8.07,-7.36 12.3,-10.8 15.64,-13.13 31.45,-26.055 46.95,-39.325 1.95,-1.86 4.095,0.93 5.875,1.75 1.84,-2.53 3.96,-4.86 6.55,-6.65 1.52,1.88 3.04,3.775 4.55,5.675 1.38,-0.01 2.735,-0.05 4.125,-0.05 2.31,-2.67 5.515,-4.85 6.625,-8.35 0.8,-2.93 0.185,-6.09 -1.375,-8.65 -3.93,-6.92 -6.885,-14.315 -10.625,-21.325 -2.69,-4.29996 1.185,-10.26496 -3.075,-13.92496 -10.28,-10.82 -18.305,-23.595 -29.475,-33.575 -2.51,-2.27 -5.475,-4.025 -8.675,-5.125 1.78,3.07 4.56,5.355 6.6,8.225 2.42,3.6 0.885,8.035 0.575,11.975 -4.65,-0.71 -10.17,-0.195 -13.7,-3.875 -2.37,-2.61 -5.16,-4.78 -8.25,-6.45 1.18,-6.52 7.71,-10.915 13.85,-12.275 -1.25,-2.55 -3.22,-4.605 -5.45,-6.325 z m -83.5,156.1 c 1.4974,-0.039 3,0.15625 4.475,0.725 3.72,0.96 4.98,5.43 4.2,8.8 -0.57,4.32 -4.815,6.615 -6.225,10.575 -5.15,1.07 -8.705,-3.345 -10.925,-7.325 -1.83,-3.19 -1.205,-6.975 -1.225,-10.475 3.11438,-0.97625 6.40572,-2.21412 9.7,-2.3 z"
       style="fill:#f3f306" />
    <path
       id="path4503"
       d="m 98.78,502.13977 c 6.94,-5.82 14.75,-10.46 21.58,-16.43 0.86,2.79 1.44,6.01 4,7.82 17.69,14.37 35.11,29.06 53.1,43.05 5.12,3.5 9.46,7.98 14.39,11.68 1.49,0.82 3.13,-0.78 4.63,-1.02 -1.77,3.47 -3.82,6.84 -6.63,9.57 -13.81,14.28 -25.54,30.34 -38.23,45.58 -2.59,2.97 -4.62,6.39 -6.08,10.05 1.88,1.09 3.77,2.18 5.63,3.31 -3.3,2.41 -7.82,-0.28 -8.46,-4.01 1.47,-2.7 3.58,-4.98 5.2,-7.59 -14.25,-12.48 -28.96,-24.41 -43.4,-36.65 -10.16,-8.43 -19.65,-17.71 -30.71,-24.98 -1.59,-0.67 -3.33,0.1 -4.97,0.15 5.22,-8.96 11.59,-17.16 17.24,-25.84 -1.51,-0.67 -3.01,-1.33 -4.51,-1.98 -2.19,-2.72 -4.42,-5.39 -6.77,-7.97 2.7,-3.04 5.47,-6.01 8.13,-9.08 1.5,-1.67 3.03,-3.53 5.28,-4.16 3.54,2.79 6.42,6.48 10.58,8.5 z"
       inkscape:connector-curvature="0"
       style="fill:#0d0906" />
    <path
       id="path4505"
       d="m 518.62,485.68977 c 6.85,5.95 14.65,10.65 21.62,16.45 4.18,-2.02 7.01,-5.79 10.61,-8.51 2.48,0.76 4.1,2.92 5.77,4.77 2.45,2.9 5.05,5.65 7.62,8.44 -1.43,1.69 -2.83,3.42 -4.38,5 -2.05,2.03 -4.4,3.7 -6.75,5.37 5.67,8.32 11.54,16.5 17.01,24.96 -2.04,0.21 -4.06,0.37 -6.06,0.79 -5.03,4.35 -10.78,7.81 -15.55,12.47 -18.86,16.61 -38.56,32.24 -57.48,48.78 1.69,2.83 4.83,5.17 4.97,8.68 -1.1,3.11 -5.34,4.98 -8.18,2.86 1.85,-1.12 3.73,-2.2 5.61,-3.27 -1.41,-3.42 -3.08,-6.76 -5.57,-9.52 -12.33,-14.63 -23.51,-30.25 -36.81,-44.05 -1.72,-1.84 -3.43,-3.67 -5.1,-5.55 -1.46,-1.76 -2.26,-3.95 -3.26,-5.98 1.91,0.45 4.3,2.01 5.83,-0.03 6.93,-6.46 14.71,-11.89 22,-17.92 14.97,-11.63 29.3,-24.05 44.1,-35.88 2.59,-1.8 3.13,-5.06 4,-7.86 z"
       inkscape:connector-curvature="0"
       style="fill:#0d0906" />
    <path
       id="path4511"
       d="m 88.37,509.13977 c 0.95,-1.61 3.49,0.03 2.25,1.51 -0.95,1.6 -3.49,-0.04 -2.25,-1.51 z"
       inkscape:connector-curvature="0"
       style="fill:#fefefe" />
    <path
       id="path4513"
       d="m 548.31,508.91977 c 1.12,-1.32 3.39,0.55 2.38,1.93 -1.14,1.31 -3.41,-0.56 -2.38,-1.93 z"
       inkscape:connector-curvature="0"
       style="fill:#fefefe" />
    <path
       id="path4515"
       d="m 553.11,517.20977 c 2.35,-1.67 4.7,-3.34 6.75,-5.37 0.57,1.47 0.55,2.84 -0.05,4.11 -0.58,0.07 -1.74,0.2 -2.31,0.27 6.86,8.4 13.59,17.08 18.11,27.02 -0.62,1.18 -1.23,2.37 -1.82,3.56 -2.86,-2.12 -6.18,-3.5 -9.73,-3.84 2,-0.42 4.02,-0.58 6.06,-0.79 -5.47,-8.46 -11.34,-16.64 -17.01,-24.96 z"
       inkscape:connector-curvature="0"
       style="fill:#fefefe" />
    <path
       id="path4517"
       d="m 81.56,514.84977 c 1.5,0.65 3,1.31 4.51,1.98 -5.65,8.68 -12.02,16.88 -17.24,25.84 -0.98,1.58 -2.17,3 -3.36,4.43 -0.74,-1.36 -1.47,-2.72 -2.2,-4.07 3.95,-5.79 6.94,-12.15 10.94,-17.9 2.01,-3.51 5.07,-6.25 7.04,-9.77 0.07,-0.13 0.23,-0.38 0.31,-0.51 z"
       inkscape:connector-curvature="0"
       style="fill:#fefefe" />
    <path
       id="path4519"
       d="m 78.56,516.24977 c 0.67,-0.22 2.01,-0.67 2.69,-0.89 -1.97,3.52 -5.03,6.26 -7.04,9.77 -4,5.75 -6.99,12.11 -10.94,17.9 0.73,1.35 1.46,2.71 2.2,4.07 -1.92,-1.18 -3.83,-2.36 -5.75,-3.53 1.34,-3.42 3.55,-6.36 5.55,-9.4 4.23,-6.11 7.92,-12.69 13.29,-17.92 z"
       inkscape:connector-curvature="0"
       style="fill:#0d0906" />
    <path
       id="path4521"
       d="m 557.5,516.21977 c 0.57,-0.07 1.73,-0.2 2.31,-0.27 5.2,5.6 9.54,11.9 14.21,17.93 2.09,3.04 4.05,6.21 5.25,9.72 -1.82,1.08 -3.64,2.16 -5.48,3.2 0.59,-1.19 1.2,-2.38 1.82,-3.56 -4.52,-9.94 -11.25,-18.62 -18.11,-27.02 z"
       inkscape:connector-curvature="0"
       style="fill:#0d0906" />
    <path
       id="path4527"
       d="m 370.94,559.89977 c 1.6,-3.36 5.13,-4.99 8.05,-6.99 -0.41,3.05 -0.88,6.9 1.93,9.01 3.6,2.34 7.84,3.39 11.74,5.13 -2.93,3.88 -5.59,8.95 -10.73,10.12 -5.44,0.82 -10.77,-1.1 -15.91,-2.59 1.13,-5.04 2.55,-10.06 4.92,-14.68 z"
       inkscape:connector-curvature="0"
       style="fill:#f30202" />
    <path
       id="path4529"
       d="m 445.95,553.35977 c 1.67,1.88 3.38,3.71 5.1,5.55 13.3,13.8 24.48,29.42 36.81,44.05 2.49,2.76 4.16,6.1 5.57,9.52 -1.88,1.07 -3.76,2.15 -5.61,3.27 -0.15,-0.44 -0.45,-1.31 -0.6,-1.75 -2.56,-7.51 -8.55,-13 -13.4,-19.03 -8.08,-10.05 -17.02,-19.4 -24.62,-29.83 0.46,-0.89 0.92,-1.78 1.38,-2.67 -0.09,-0.24 -0.26,-0.73 -0.35,-0.98 -1.11,-2.87 -2.92,-5.39 -4.28,-8.13 z"
       inkscape:connector-curvature="0"
       style="fill:#fefefe" />
    <path
       id="path4531"
       d="m 262.38,554.17977 c 2.43,1.56 5.16,3.14 6.31,5.95 2.1,4.72 3.49,9.7 5.19,14.57 -5.72,1.77 -11.86,3.76 -17.85,2.22 -4.48,-1.7 -6.8,-6.26 -9.64,-9.8 4.07,-1.59 8.4,-2.61 12.2,-4.81 2.47,-1.92 2.75,-5.39 3.79,-8.13 z"
       inkscape:connector-curvature="0"
       style="fill:#f30202" />
    <path
       id="path4533"
       d="m 151.62,602.38977 c 12.69,-15.24 24.42,-31.3 38.23,-45.58 -0.28,1.55 -0.55,3.12 -0.64,4.7 -0.28,2.12 0.38,4.66 -1.26,6.37 -8.13,9.85 -16.5,19.51 -24.66,29.33 -4.36,5.19 -9.32,10.21 -11.52,16.77 -0.15,0.45 -0.45,1.33 -0.6,1.77 -1.86,-1.13 -3.75,-2.22 -5.63,-3.31 1.46,-3.66 3.49,-7.08 6.08,-10.05 z"
       inkscape:connector-curvature="0"
       style="fill:#fefefe" />
    <path
       id="path4535"
       d="m 189.21,561.50977 c 1.32,1.12 2.65,2.23 3.98,3.34 -8.74,10.99 -18.21,21.4 -26.45,32.79 -4.33,6 -8.89,12 -14.97,16.34 2.2,-6.56 7.16,-11.58 11.52,-16.77 8.16,-9.82 16.53,-19.48 24.66,-29.33 1.64,-1.71 0.98,-4.25 1.26,-6.37 z"
       inkscape:connector-curvature="0"
       style="fill:#0d0906" />
    <path
       id="path4537"
       d="m 445.75,564.79977 c 1.48,-1.12 2.97,-2.23 4.48,-3.31 0.09,0.25 0.26,0.74 0.35,0.98 -0.46,0.89 -0.92,1.78 -1.38,2.67 7.6,10.43 16.54,19.78 24.62,29.83 4.85,6.03 10.84,11.52 13.4,19.03 -5.65,-4.11 -10.09,-9.58 -14.12,-15.22 -8.5,-11.81 -18.26,-22.63 -27.35,-33.98 z"
       inkscape:connector-curvature="0"
       style="fill:#0d0906" />
    <path
       id="path4539"
       d="m 570.67,563.46977 c 2.46,-0.02 4.93,0.04 7.4,0.01 1.38,-0.01 2.75,-0.03 4.14,-0.03 -3.51,1.97 -8.13,2.51 -11.54,0.02 z"
       inkscape:connector-curvature="0"
       style="fill:#9e9f9d" />
    <path
       id="path4541"
       d="m 72.39,564.21977 0.56,0.29 c 4.92,2.35 9.85,4.82 13.97,8.45 13.03,10.99 25.86,22.22 38.93,33.16 3.29,2.9 6.61,5.85 9.02,9.55 -4.73,-2.17 -8.41,-5.91 -12.38,-9.17 -11.56,-9.45 -22.69,-19.42 -34.22,-28.9 -4.74,-4.53 -10.65,-7.67 -15.07,-12.55 l -0.81,-0.83 z"
       inkscape:connector-curvature="0"
       style="fill:#9e9f9d" />
    <path
       id="path4543"
       d="m 548.3,576.11977 c 5.27,-4.1 10.26,-9.38 17.11,-10.64 -3.21,3.49 -7.28,6 -10.96,8.94 -15,12.62 -29.85,25.42 -44.93,37.95 -1.57,1.25 -3.35,2.22 -5.18,3.03 0.97,-2.03 2.48,-3.71 4.2,-5.12 13.09,-11.57 26.57,-22.69 39.76,-34.16 z"
       inkscape:connector-curvature="0"
       style="fill:#9e9f9d" />
    <path
       id="path4545"
       d="m 230.05,571.79977 c 0.13,-1.38 0.28,-2.84 1.08,-4.01 5.77,5.97 12.53,10.83 18.69,16.37 3.17,2.84 7.12,4.71 10.05,7.84 1.96,2.07 3.86,4.24 6.11,6.02 8.09,6.16 15.27,13.44 23.58,19.32 3.66,2.56 2.91,7.61 4.97,11.15 1.31,1.6 3.1,2.74 4.39,4.38 1.91,2.65 1.9,6.06 3,9.04 2.32,1.31 5.52,0.69 7.55,2.73 2.67,2.16 5.77,5.35 4.51,9.1 -3.43,3.44 -8.04,5.23 -12.49,6.93 -2.13,0.74 -3.02,2.96 -3.7,4.92 -0.81,-1.38 -1.48,-2.84 -2.09,-4.32 -13.03,-10.96 -25.6,-22.48 -38.81,-33.25 -3.99,-3.32 -7.45,-7.24 -11.6,-10.38 -5.29,-4.06 -10.56,-8.15 -15.66,-12.45 -1.03,-0.98 -2.23,-1.94 -2.69,-3.32 0.91,-2.3 2.76,-4.26 2.93,-6.81 0.47,-7.75 -0.45,-15.52 0.18,-23.26 z"
       inkscape:connector-curvature="0"
       style="fill:#9e9f9d" />
    <path
       id="path4547"
       d="m 396.84,577.64977 c 3.99,-3.12 7.69,-6.59 11.38,-10.05 1.9,9.04 0.29,18.3 0.89,27.44 0.14,2.54 2.02,4.5 2.93,6.79 -0.97,2.51 -3.54,3.96 -5.48,5.69 -6.86,5.8 -14.42,10.77 -20.76,17.17 -10.43,9.25 -21.42,17.86 -31.61,27.39 -4.06,3.95 -9.86,6.49 -12.07,12.02 l -0.46,0.92 c -1.41,-1.75 -2.61,-3.96 -4.87,-4.68 -4.25,-1.52 -8.52,-3.38 -11.77,-6.6 -1.26,-3.78 1.88,-6.98 4.57,-9.15 2.02,-1.97 5.11,-1.44 7.47,-2.64 1.03,-2.78 1.11,-5.88 2.63,-8.48 1.52,-2.64 5,-3.82 5.63,-7.01 1.03,-3.16 1.15,-7.11 4.21,-9.15 8.27,-5.9 15.43,-13.16 23.5,-19.32 3.78,-2.93 6.42,-7.11 10.52,-9.66 4.83,-3.05 8.82,-7.17 13.29,-10.68 z"
       inkscape:connector-curvature="0"
       style="fill:#9e9f9d" />
    <path
       id="path4549"
       d="m 190.38,573.15977 c 0.34,-0.05 1.02,-0.15 1.36,-0.2 4.46,3.15 8.35,7.11 11.7,11.41 0.71,1.19 2.27,2.61 1.09,4.03 -2.82,4.09 -5.54,8.49 -9.49,11.56 -5.34,-4.18 -11.06,-8.33 -14.71,-14.15 2.05,-4.91 6.09,-9.08 10.05,-12.65 z"
       inkscape:connector-curvature="0"
       style="fill:#0d0906" />
    <path
       id="path4551"
       d="m 435.46,584.46977 c 3.48,-4.64 7.79,-8.61 12.44,-12.05 4.25,3.89 8.31,8.12 10.94,13.32 -3.87,5.89 -9.64,10.02 -14.98,14.44 -3.54,-3.58 -6.77,-7.5 -9.37,-11.82 -1.16,-1.36 0.27,-2.72 0.97,-3.89 z"
       inkscape:connector-curvature="0"
       style="fill:#0d0906" />
    <path
       id="path4557"
       d="m 295.24,595.23977 c 0.59,1.13 1.75,2.11 1.71,3.49 0.19,4.26 0.13,8.53 -0.17,12.78 -0.63,-1.12 -1.8,-2.09 -1.74,-3.47 -0.19,-4.27 -0.14,-8.55 0.2,-12.8 z"
       inkscape:connector-curvature="0"
       style="fill:#fefefe" />
    <path
       id="path4559"
       d="m 329.8,608.90977 c 4.19,-3.33 7.62,-7.51 12.01,-10.6 0.32,4.43 0.39,8.88 -0.01,13.32 -3.9,4.47 -9.32,6.83 -14.24,9.88 2.78,4.04 5.29,8.66 9.92,10.86 -1.43,2.18 -2.18,4.69 -2,7.31 -5.82,1.45 -11.1,5.61 -13.14,11.33 -0.49,2.84 1.99,4.85 3.63,6.8 -2.35,1.34 -4.69,2.69 -7.01,4.08 -2.34,-1.13 -4.68,-2.24 -7.02,-3.36 0.3,-0.4 0.89,-1.19 1.19,-1.59 1.95,0.96 3.91,1.92 5.87,2.88 0.21,-13.63 -0.42,-27.31 0.25,-40.91 3.29,-3.54 7.01,-6.7 10.55,-10 z"
       inkscape:connector-curvature="0"
       style="fill:#fefefe" />
    <path
       id="path4561"
       d="m 160.26,609.51977 c 4.66,-2.3 7.82,-6.5 11.66,-9.85 -1.59,3.03 -3.37,5.96 -5.06,8.93 2.81,1.4 5.71,2.83 7.75,5.32 -5.24,0.55 -9.75,-2.44 -14.35,-4.4 z"
       inkscape:connector-curvature="0"
       style="fill:#0d0906" />
    <path
       id="path4563"
       d="m 467.04,599.61977 c 3.87,3.31 6.9,7.7 11.7,9.8 -4.56,2.13 -9.12,5 -14.37,4.53 1.9,-2.86 5.4,-3.66 8.03,-5.61 -1.97,-2.79 -3.92,-5.61 -5.36,-8.72 z"
       inkscape:connector-curvature="0"
       style="fill:#0d0906" />
    <path
       inkscape:connector-curvature="0"
       id="path4565"
       d="m 195.5,613.83977 c -2.1968,0.0495 -4.285,0.6725 -6.1,2.3 -4.3,2.76 -7.96,7.46 -7.15,12.85 1.22,6.24 5.41,11.655 10.7,15.075 4.86,3.35 9.86,7.685 16.1,7.675 4.98,-0.34 10.365,-2.245 13.175,-6.625 2.62,-3.81 3.04,-8.56 2.95,-13.05 1.9,2.09 3.895,4.115 6.025,5.975 -2.97,-11.44 -14.22,-18.22 -24.75,-21.75 -3.3625,-1.03125 -7.28867,-2.53252 -10.95,-2.45 z m -2.775,6.025 c 3.46094,-0.0454 6.98,1.2025 10.225,2.275 0.03,3.48 0.655,7.255 -1.175,10.425 -2.11,4.12 -6.005,8.39 -11.125,7.45 -1,-3.93 -5.175,-5.965 -5.925,-9.975 -0.85,-3.27 -0.15,-7.755 3.35,-9.175 1.50938,-0.68125 3.07684,-0.97939 4.65,-1 z"
       style="fill:#0d0906" />
    <path
       id="path4567"
       d="m 276.95,622.88977 c 1.86,-2.6 1.16,-6.24 2.12,-9.25 2.92,2.12 6.27,4.1 8.01,7.37 0.16,5 -0.77,9.94 -1.25,14.9 -0.39,2.37 -0.43,4.97 -1.8,7.05 -5.56,-2.98 -9.37,-8.35 -14.84,-11.47 -2.45,-3.08 -0.91,-7.13 -1.05,-10.7 2.85,0.87 5.73,3.18 8.81,2.1 z"
       inkscape:connector-curvature="0"
       style="fill:#0d0906" />
    <path
       id="path4569"
       d="m 351.9,621.00977 c 1.78,-3.3 5.14,-5.33 8.16,-7.38 0.67,3.49 0.97,7.04 1.01,10.59 3.38,-0.79 6.6,-2.13 9.81,-3.45 -0.3,3.47 1.74,7.91 -1.62,10.41 -4.41,4.33 -9.27,8.2 -14.15,12 -1.51,-2.47 -1.73,-5.42 -2.05,-8.22 -0.46,-4.64 -1.31,-9.27 -1.16,-13.95 z"
       inkscape:connector-curvature="0"
       style="fill:#0d0906" />
    <path
       inkscape:connector-curvature="0"
       id="path4571"
       d="m 443.25,613.93977 c -6.33446,0.16488 -12.40125,2.9075 -18.15,5.375 -7.64,3.91 -15.245,9.94 -17.275,18.7 2.04,-2.11 3.985,-4.3 6.075,-6.35 0.2,3.66 0.39,7.36 1.45,10.9 2.87,6.78 11.08,10.395 18.1,8.725 5.91,-1.76 10.675,-5.93 15.575,-9.5 5.27,-4.65 10.005,-12.515 6.525,-19.525 -2.06,-3.73 -5.795,-6.445 -9.575,-8.225 -0.91625,-0.09 -1.82008,-0.12355 -2.725,-0.1 z m 2.475,5.925 c 1.4974,-0.039 3,0.15625 4.475,0.725 3.72,0.96 4.98,5.43 4.2,8.8 -0.57,4.32 -4.815,6.615 -6.225,10.575 -5.15,1.07 -8.705,-3.345 -10.925,-7.325 -1.83,-3.19 -1.205,-6.975 -1.225,-10.475 3.11438,-0.97625 6.40572,-2.21412 9.7,-2.3 z"
       style="fill:#0d0906" />
    <path
       id="path4577"
       d="m 302.27,645.12977 c 2.79,-0.48 6.77,-0.9 8.07,2.34 2.66,3.85 -2.85,9.22 -6.72,6.87 -3.59,-1.39 -5.27,-7.18 -1.35,-9.21 z"
       inkscape:connector-curvature="0"
       style="fill:#0d0906" />
    <path
       id="path4579"
       d="m 331.07,645.05977 c 2.73,-0.47 6.13,-0.56 7.78,2.13 0.88,3.07 -1.19,6.32 -4.06,7.42 -3.83,1.64 -8.6,-3.56 -6.12,-7.15 0.52,-1.02 1.31,-1.97 2.4,-2.4 z"
       inkscape:connector-curvature="0"
       style="fill:#0d0906" />
    <path
       id="path4581"
       d="m 301.72,647.23977 c 2.4,0.79 3.73,2.78 3.61,5.32 -2.49,-0.66 -3.08,-3.17 -3.61,-5.32 z"
       inkscape:connector-curvature="0"
       style="fill:#fefefe" />
    <path
       id="path4583"
       d="m 334.76,652.37977 c -2.63,-1.61 0.63,-4.59 2.53,-5.15 -0.55,1.83 -0.96,3.87 -2.53,5.15 z"
       inkscape:connector-curvature="0"
       style="fill:#fefefe" />
    <path
       id="path4585"
       d="m 383.07,648.12977 c -3.96,4.72 -8.69,8.91 -14.25,11.64 4.01,-4.7 9.01,-8.43 14.25,-11.64 z"
       inkscape:connector-curvature="0"
       style="fill:#0d0906" />
    <path
       id="path4587"
       d="m 257.94,649.69977 c 4.74,2.54 8.87,6.12 12.19,10.32 -4.68,-2.59 -9.09,-5.89 -12.19,-10.32 z"
       inkscape:connector-curvature="0"
       style="fill:#0d0906" />
    <path
       id="path4589"
       d="m 319,664.05977 c 2.88,-1.78 5.72,-3.91 9.15,-4.47 3.91,0.79 7.69,2.26 11.01,4.5 0.04,3.27 -1.62,6.1 -3.26,8.8 -5.63,0.03 -11.27,0.02 -16.9,0 0,-2.95 0,-5.89 0,-8.83 z"
       inkscape:connector-curvature="0"
       style="fill:#fefefe" />
    <path
       id="path4593"
       d="m 222.14,679.86977 c 0.68,0 2.04,-0.01 2.73,-0.01 1.06,1.64 2.01,3.34 2.82,5.13 -1.57,0.35 -3.14,0.68 -4.71,1.03 -2.24,-1.56 -2.28,-3.99 -0.84,-6.15 z"
       inkscape:connector-curvature="0"
       style="fill:#9e9f9d" />
    <path
       id="path4595"
       d="m 414.15,679.86977 c 0.66,0 1.98,0.01 2.64,0.02 0.34,0.49 1.02,1.48 1.36,1.97 -0.15,1.45 0.08,3.15 -1.36,4.05 -1.75,0.16 -3.43,-0.4 -4.98,-1.14 0.83,-1.62 1.55,-3.27 2.34,-4.9 z"
       inkscape:connector-curvature="0"
       style="fill:#9e9f9d" />
    <path
       id="path4597"
       d="m 224.29,690.95977 c 2.15,-3.98 7.01,-3.16 10.76,-2.9 -3.21,2.08 -6.99,2.83 -10.76,2.9 z"
       inkscape:connector-curvature="0"
       style="fill:#9e9f9d" />
    <path
       id="path4599"
       d="m 404.48,687.97977 c 3.59,-0.2 8.21,-0.85 10.21,2.98 -3.55,-0.26 -7.46,-0.4 -10.21,-2.98 z"
       inkscape:connector-curvature="0"
       style="fill:#9e9f9d" />
    <path
       id="path4601"
       d="m 214.92,689.65977 c 2.78,-1.27 5.9,-0.71 8.85,-0.7 -1.67,2.76 -5.06,2.68 -7.86,3.15 -0.25,-0.61 -0.74,-1.83 -0.99,-2.45 z"
       inkscape:connector-curvature="0"
       style="fill:#9e9f9d" />
    <path
       id="path4603"
       d="m 415.31,688.95977 c 3.14,0.03 6.96,-1.03 9.37,1.64 -2.87,2.18 -7.45,1.41 -9.37,-1.64 z"
       inkscape:connector-curvature="0"
       style="fill:#9e9f9d" />
    <path
       id="path4605"
       d="m 306.79,708.55977 c 4.94,3.71 9.29,8.17 12.82,13.24 3.22,-5.24 7.74,-9.48 12.56,-13.22 -1.4,7.71 -3.25,15.42 -3.17,23.32 0.12,7.05 -0.54,14.25 1.36,21.14 1.7,7.46 6.85,13.97 6.73,21.87 0.24,7.75 -0.02,16.12 -4.31,22.88 -2.67,2.19 -6.62,0.77 -9.81,1.17 -5.25,-0.12 -10.52,0.26 -15.74,-0.27 -3.38,-3.2 -4.13,-8.25 -4.93,-12.64 -0.62,-7 -1.16,-14.44 1.8,-21.02 2.99,-6.67 5.58,-13.7 5.85,-21.08 0.11,-4.34 0.02,-8.69 0.05,-13.03 0.1,-7.59 -2.31,-14.88 -3.21,-22.36 z"
       inkscape:connector-curvature="0"
       style="fill:#0d0906" />
    <path
       id="path4607"
       d="m 213.44,716.21977 c 0.98,-2.62 2.41,-5.26 5.36,-5.97 0.54,1.91 1.06,3.83 1.52,5.77 -2.27,0.45 -4.59,0.58 -6.88,0.2 z"
       inkscape:connector-curvature="0"
       style="fill:#9e9f9d" />
    <path
       id="path4609"
       d="m 420.19,710.26977 c 2.94,0.72 4.43,3.33 5.34,5.99 -2.23,0.31 -4.49,0.21 -6.69,-0.21 0.43,-1.93 0.89,-3.86 1.35,-5.78 z"
       inkscape:connector-curvature="0"
       style="fill:#9e9f9d" />
    <path
       id="path4611"
       d="m 220.02,719.72977 c 4.73,-1.31 9.7,-1.47 14.56,-1.81 -2.92,2.67 -6.93,3.03 -10.69,3.34 -1.2,0.1 -4.58,0.75 -3.87,-1.53 z"
       inkscape:connector-curvature="0"
       style="fill:#9e9f9d" />
    <path
       id="path4613"
       d="m 404.44,717.92977 c 4.82,0.35 9.8,0.39 14.44,1.82 1.29,1.7 -1.87,1.71 -2.8,1.6 -4.04,-0.4 -8.48,-0.5 -11.64,-3.42 z"
       inkscape:connector-curvature="0"
       style="fill:#9e9f9d" />
    <path
       id="path4615"
       d="m 210.25,718.93977 c 2.52,-0.08 5.04,-0.08 7.57,-0.02 -1.17,1.16 -2.12,2.85 -3.87,3.17 -1.69,-0.35 -2.6,-2 -3.7,-3.15 z"
       inkscape:connector-curvature="0"
       style="fill:#9e9f9d" />
    <path
       id="path4617"
       d="m 421.25,718.92977 c 2.5,-0.07 5.01,-0.07 7.52,0.01 -1.13,1.15 -2.06,2.86 -3.81,3.15 -1.71,-0.35 -2.62,-1.99 -3.71,-3.16 z"
       inkscape:connector-curvature="0"
       style="fill:#9e9f9d" />
    <path
       id="path4619"
       d="m 206.61,736.85977 c 0.38,-2.11 0.13,-5.81 3.37,-5.03 1.15,1.45 0.57,3.33 0.6,5.03 2.04,0 4.09,0.02 6.13,0.14 -2.63,3.48 -6.98,1.31 -10.1,-0.14 z"
       inkscape:connector-curvature="0"
       style="fill:#9e9f9d" />
    <path
       id="path4621"
       d="m 428.38,736.85977 c 0.09,-1.67 -0.5,-3.56 0.61,-4.98 3.15,-0.95 3.1,2.94 3.38,4.99 -3.13,1.46 -7.46,3.59 -10.09,0.13 2.03,-0.12 4.07,-0.14 6.1,-0.14 z"
       inkscape:connector-curvature="0"
       style="fill:#9e9f9d" />
    <path
       id="path4623"
       d="m 302,808.12977 c 0.08,-3.7 2.95,-6.44 5.92,-8.21 4.06,-0.26 8.03,1.03 12.09,0.78 3.94,-0.25 7.83,-0.94 11.78,-0.93 2.19,2.51 4.13,5.23 5.83,8.1 -4.67,1.07 -9.37,2.02 -14.06,3.02 l -8.17,0 c -4.48,-0.86 -8.97,-1.66 -13.39,-2.76 z"
       inkscape:connector-curvature="0"
       style="fill:#0d0906" />
  </g>
  <g
     id="g3175"
     transform="translate(8.660388e-7,-0.28271434)">
    <text
       sodipodi:linespacing="100%"
       id="text3051"
       y="690.64075"
       x="297.60248"
       style="font-size:47.10847092px;font-style:normal;font-variant:normal;font-weight:normal;font-stretch:normal;line-height:100%;letter-spacing:0px;word-spacing:0px;fill:#000000;fill-opacity:1;stroke:none;font-family:DejaVu Sans;-inkscape-font-specification:DejaVu Sans"
       xml:space="preserve"><tspan
         id="tspan3110"
         style="font-size:150.74710083px;font-style:normal;font-variant:normal;font-weight:bold;font-stretch:normal;text-align:center;line-height:100%;writing-mode:lr-tb;text-anchor:middle;font-family:League Gothic;-inkscape-font-specification:League Gothic Bold"
         y="690.64075"
         x="297.60248"
         sodipodi:role="line">LIVE ACTION</tspan></text>
    <text
       sodipodi:linespacing="100%"
       id="text3051-2"
       y="569.65112"
       x="299.53668"
       style="font-size:38.45845795px;font-style:normal;font-variant:normal;font-weight:normal;font-stretch:normal;line-height:100%;letter-spacing:0px;word-spacing:0px;fill:#000000;fill-opacity:1;stroke:none;font-family:DejaVu Sans;-inkscape-font-specification:DejaVu Sans"
       xml:space="preserve"><tspan
         id="tspan3100"
         style="font-size:123.06706238px;font-style:normal;font-variant:normal;font-weight:bold;font-stretch:normal;text-align:center;line-height:100%;writing-mode:lr-tb;text-anchor:middle;font-family:League Gothic;-inkscape-font-specification:League Gothic Bold"
         y="569.65112"
         x="299.53668"
         sodipodi:role="line">ABERYSTWYTH</tspan><tspan
         id="tspan3104"
         style="font-size:123.06706238px;font-style:normal;font-variant:normal;font-weight:bold;font-stretch:normal;text-align:center;line-height:100%;writing-mode:lr-tb;text-anchor:middle;font-family:League Gothic;-inkscape-font-specification:League Gothic Bold"
         y="692.7182"
         x="299.53668"
         sodipodi:role="line" /></text>
    <text
       sodipodi:linespacing="100%"
       id="text3051-6"
       y="779.66742"
       x="296.23029"
       style="font-size:33.57194901px;font-style:normal;font-variant:normal;font-weight:normal;font-stretch:normal;line-height:100%;letter-spacing:0px;word-spacing:0px;fill:#000000;fill-opacity:1;stroke:none;font-family:DejaVu Sans;-inkscape-font-specification:DejaVu Sans"
       xml:space="preserve"><tspan
         style="font-size:107.43024445px;font-style:normal;font-variant:normal;font-weight:bold;font-stretch:normal;text-align:center;line-height:100%;writing-mode:lr-tb;text-anchor:middle;font-family:League Gothic;-inkscape-font-specification:League Gothic Bold"
         id="tspan3055-5"
         y="779.66742"
         x="296.23029"
         sodipodi:role="line">GAMING SOCIETY</tspan></text>
  </g>
  <text
     xml:space="preserve"
     style="font-size:32px;font-style:normal;font-variant:normal;font-weight:normal;font-stretch:normal;line-height:125%;letter-spacing:0px;word-spacing:0px;fill:#000000;fill-opacity:1;stroke:none;font-family:DejaVu Sans;-inkscape-font-specification:DejaVu Sans"
     x="491.5871"
     y="818.617"
     id="text3118"
     sodipodi:linespacing="125%"><tspan
       sodipodi:role="line"
       x="491.5871"
       y="818.617"
       style="font-size:16px;font-style:normal;font-variant:normal;font-weight:normal;font-stretch:normal;text-align:end;text-anchor:end;font-family:League Gothic;-inkscape-font-specification:League Gothic"
       id="tspan3147" /></text>
  <text
     xml:space="preserve"
     style="font-size:32px;font-style:normal;font-variant:normal;font-weight:normal;font-stretch:normal;line-height:125%;letter-spacing:0px;word-spacing:0px;fill:#000000;fill-opacity:1;stroke:none;font-family:DejaVu Sans;-inkscape-font-specification:DejaVu Sans"
     x="407.48605"
     y="813.46014"
     id="text3118-3"
     sodipodi:linespacing="125%"><tspan
       sodipodi:role="line"
       x="407.48605"
       y="813.46014"
       style="font-size:16px;font-style:normal;font-variant:normal;font-weight:normal;font-stretch:normal;text-align:end;text-anchor:end;font-family:League Gothic;-inkscape-font-specification:League Gothic"
       id="tspan3153">www.aberlag.com | facebook.com/groups/aberlag</tspan><tspan
       sodipodi:role="line"
       x="407.48605"
       y="833.46014"
       style="font-size:16px;font-style:normal;font-variant:normal;font-weight:normal;font-stretch:normal;text-align:end;text-anchor:end;font-family:League Gothic;-inkscape-font-specification:League Gothic"
       id="tspan3157" /><tspan
       sodipodi:role="line"
       x="407.48605"
       y="853.46014"
       style="font-size:16px;font-style:normal;font-variant:normal;font-weight:normal;font-stretch:normal;text-align:end;text-anchor:end;font-family:League Gothic;-inkscape-font-specification:League Gothic"
       id="tspan3151" /></text>
</svg>
