<?xml version="1.0" encoding="UTF-8" standalone="no"?>
<!-- Created with Inkscape (http://www.inkscape.org/) -->

<svg
   xmlns:dc="http://purl.org/dc/elements/1.1/"
   xmlns:cc="http://creativecommons.org/ns#"
   xmlns:rdf="http://www.w3.org/1999/02/22-rdf-syntax-ns#"
   xmlns:svg="http://www.w3.org/2000/svg"
   xmlns="http://www.w3.org/2000/svg"
   xmlns:sodipodi="http://sodipodi.sourceforge.net/DTD/sodipodi-0.dtd"
   xmlns:inkscape="http://www.inkscape.org/namespaces/inkscape"
   width="210mm"
   height="297mm"
   id="svg2985"
   version="1.1"
   inkscape:version="0.48.3.1 r9886"
   sodipodi:docname="shirt-front.svg"
   inkscape:export-filename="/home/sam/dev/logo/shirt-front.png"
   inkscape:export-xdpi="90"
   inkscape:export-ydpi="90">
  <defs
     id="defs3">
    <filter
       id="filter3742"
       inkscape:label="Desaturate"
       x="0"
       y="0"
       width="1"
       height="1"
       inkscape:menu="Color"
       inkscape:menu-tooltip="Render in shades of gray by reducing saturation to zero"
       color-interpolation-filters="sRGB">
      <feColorMatrix
         id="feColorMatrix3744"
         type="saturate"
         values="0" />
    </filter>
  </defs>
  <sodipodi:namedview
     inkscape:document-units="mm"
     id="base"
     pagecolor="#ffffff"
     bordercolor="#666666"
     borderopacity="1.0"
     inkscape:pageopacity="0"
     inkscape:pageshadow="2"
     inkscape:zoom="0.35"
     inkscape:cx="-155.71429"
     inkscape:cy="520"
     inkscape:current-layer="layer1"
     showgrid="false"
     units="mm"
     inkscape:window-width="1366"
     inkscape:window-height="743"
     inkscape:window-x="0"
     inkscape:window-y="0"
     inkscape:window-maximized="0" />
  <metadata
     id="metadata4">
    <rdf:RDF>
      <cc:Work
         rdf:about="">
        <dc:format>image/svg+xml</dc:format>
        <dc:type
           rdf:resource="http://purl.org/dc/dcmitype/StillImage" />
        <dc:title></dc:title>
      </cc:Work>
    </rdf:RDF>
  </metadata>
  <g
     inkscape:label="Layer 1"
     inkscape:groupmode="layer"
     id="layer1">
    <text
       xml:space="preserve"
       style="font-size:100px;font-style:normal;font-variant:normal;font-weight:normal;font-stretch:normal;text-align:center;line-height:125%;letter-spacing:0px;word-spacing:0px;text-anchor:middle;fill:#000000;fill-opacity:1;stroke:none;font-family:League Gothic;-inkscape-font-specification:League Gothic"
       x="371.87106"
       y="859.03448"
       id="text3357"
       sodipodi:linespacing="125%"><tspan
         sodipodi:role="line"
         id="tspan3359"
         x="371.87106"
         y="859.03448"
         style="font-size:110px">ABERYSTWYTH LIVE</tspan><tspan
         sodipodi:role="line"
         x="371.87106"
         y="996.53448"
         id="tspan3361"
         style="font-size:110px">ACTION GAMES SOCIETY</tspan></text>
    <g
       id="g3559"
       transform="matrix(1.125,0,0,1.125,14.904196,20.072711)"
       style="filter:url(#filter3742)">
      <path
         id="path4483"
         transform="scale(0.8,0.8)"
         d="m 397.96875,38.75 c -4.2375,6.3 -8.875,12.39375 -12.125,19.28125 -8.575,17.4625 -13.20625,36.6125 -15.84375,55.8125 -1.225,9.125 -2.60625,18.2625 -2.59375,27.5 -0.0625,26.4 0.35625,52.81875 -0.15625,79.21875 -18.1,6.2875 -34.44375,17.95 -45.34375,33.8125 -18.4875,-7.9125 -36.6625,-16.53125 -55,-24.78125 -14.175,-6.95 -29.73125,-11.675 -42.03125,-21.9375 -62.4375,-45.95 -124.9,-91.85 -187.375,-137.75 -6.1125,-4.4375 -11.775,-9.61875 -18.75,-12.71875 1.025,4.4 3.625,8.1375 5.75,12.0625 18.4125,33.15 37.5375,65.93125 55.9375,99.09375 1.5625,3.1 4.5625,5.01875 7.6875,6.28125 33.325,14.45 66.5375,29.14375 99.875,43.59375 15.125,6.0125 28.19375,15.94375 42.21875,24.03125 11.55,7.2125 23.35625,13.96875 34.84375,21.28125 2.1625,1.4625 4.8,2.86875 5.5625,5.59375 1.6375,4.8625 -0.21875,9.925 -1.53125,14.625 -13.275,-4.4625 -26.56875,-8.8875 -39.84375,-13.3125 -8.2,-2.7625 -16.6,-5.075 -24.3125,-9.0625 -10.975,-5.7125 -22.2375,-10.84375 -33,-16.96875 -10.8375,-6.0625 -22.275,-10.99375 -33.125,-17.03125 -12.7375,-7.1375 -26.03125,-13.2375 -38.96875,-20 12.9625,24.15 26.725,47.85 39.9375,71.875 1.5375,3.5875 5.8125,3.68125 9.125,4.28125 20.375,2.5875 40.61875,6.00625 60.96875,8.71875 4.975,0.6125 9.9125,1.6625 14.625,3.375 16.925,6.2375 33.6375,12.9875 50.625,19.0625 8.025,2 8.0625,11.725 11.125,17.9375 -5.4625,4.1 -10.975,10.9125 -18.625,9.125 -19.2125,-3.2625 -38.475,-6.2125 -57.6875,-9.375 -17.6625,-2.45 -34.69375,-8.13125 -51.28125,-14.46875 1.375,5.3 5.975,8.8 8.8125,13.3125 9.0875,13.125 18.99375,25.66875 27.84375,38.96875 C 187.4375,364.6625 179.475,359.05 173,351.875 167.3125,345 159.0375,341.05625 152.875,334.65625 c -4.5125,-4.8375 -10.475,-7.825 -16.5625,-10.1875 -3.8,3.5375 -7.0375,7.61875 -10.4375,11.53125 -2.5375,3.35 -7.1375,2.44375 -10.75,3.34375 -3.05,0.325 -5.20625,2.675 -7.28125,4.6875 -3.375,3.4625 -7.0375,6.98125 -8.6875,11.65625 -1.4875,3.8625 -1.74375,8.30625 -4.40625,11.65625 -5.0125,6.575 -10.95,12.39375 -16.125,18.84375 -2.7,3.175 -2.0625,7.575 -2.5625,11.4375 -0.4125,6.8125 -4.73125,12.4125 -7.21875,18.5625 -2.8625,7.1125 -8.4875,13.29375 -9,21.21875 -0.5375,7.9875 5.81875,14.23125 12.21875,17.90625 4.7875,2.9625 10.425,0.65 15.3125,-0.75 23.175,17.6625 44.84375,37.16875 67.28125,55.71875 5.6625,4.9 11.625,9.4375 17.875,13.5625 3.1625,1.8375 3.775,5.6625 5.125,8.75 1.4,3.9875 4.46875,7.16875 8.03125,9.34375 5.8875,3.45 13.13125,-1.675 18.96875,2 4.925,2.7875 9.95625,5.4 15.21875,7.5 12.2125,4.8875 18.30625,17.8 29.40625,24.3125 8.0375,4.95 16.79375,9.90625 21.78125,18.21875 1.7875,6.5875 -6.44375,9.425 -8.65625,14.6875 -3.525,7.925 3.66875,15.61875 2.03125,23.65625 -1.575,5.2375 -5.9625,8.9125 -8.3125,13.75 -1.8375,5.025 -0.69375,11.225 -4.53125,15.4375 -4.3125,3.575 -12.35625,0.6625 -14.90625,6.6875 -1.8375,7.975 2.775,15.525 4.75,23.0625 1.15,5.6625 7.39375,7.68125 12.46875,7.96875 4.575,-0.2375 8.96875,-2.025 13.59375,-1.8125 10.4375,0.25 20.8625,0.2875 31.3125,0 3.675,-0.175 7.53125,-0.0562 10.96875,-1.59375 4.6125,-2.05 8.05625,-5.9375 11.28125,-9.6875 2.0875,-2.5 4.40625,-5.14375 4.71875,-8.53125 1.1875,-11.7625 4.775,-23.24375 4.375,-35.15625 3.6625,0.4875 7.3375,1.35625 11.0625,1.03125 3.35,-2.8 5.84375,-6.55625 9.53125,-8.96875 8.8,-5.875 20.1,-7.05625 30.3125,-5.03125 8.0125,1.925 12.9125,9.05625 18.25,14.71875 6.1,-5.8625 11.26875,-14.93125 20.65625,-15.34375 7.3875,0.45 14.86875,1.4125 21.84375,4 4.7,1.6375 8.1875,5.3125 11.75,8.625 3.9625,4.125 10.11875,1.18125 15.03125,0.96875 -0.35,11.9 3.1125,23.40625 4.375,35.15625 0.2625,3.7375 3.03125,6.4875 5.34375,9.1875 2.975,3.3 5.86875,7.03125 10.15625,8.71875 7.6,3.2 16.0125,1.575 24,2.125 9.6375,0.6875 19.475,-1.4875 28.9375,1.1875 5.9,1.1875 14.38125,-0.8375 15.90625,-7.5625 2.0125,-7.35 6.13125,-14.5875 5.03125,-22.4375 -1.8,-5.875 -9.0375,-4.44375 -13.5625,-6.28125 -4.5875,-2.425 -4.5125,-8.29375 -5.25,-12.71875 -0.6875,-7.2875 -8.23125,-11.4375 -9.46875,-18.5625 -0.575,-6.9 4.15,-13.16875 3.0625,-20.09375 -0.9,-4.95 -5.54375,-7.6625 -8.34375,-11.4375 -1.7375,-2.025 -2.0625,-5.3 -0.25,-7.375 5.5125,-7.15 13.30625,-12.05625 20.96875,-16.59375 9.0125,-5.375 14.6625,-14.69375 23.0625,-20.84375 4.8625,-3.4625 10.7625,-4.9625 15.9375,-7.875 2.95,-1.525 5.6625,-3.575 8.9375,-4.375 5.7,-0.5125 12.275,2.3375 17.25,-1.6875 5.1375,-3.3625 6.625,-9.55 9.125,-14.75 3.0625,-3.65 7.7,-5.53125 11.3125,-8.59375 25.7125,-20.65 49.9375,-43.11875 76.25,-63.03125 4.6375,1.2 9.7625,3.51875 14.4375,1.15625 8.3875,-4 16.0375,-13.45 12.25,-23.1875 -4.5875,-10.0125 -10.14375,-19.59375 -14.40625,-29.78125 -2.0875,-5.325 0.0937,-11.84375 -3.59375,-16.59375 C 715.05,379.625 708.90625,374 704.03125,367.3125 c -3.5875,-4.7 -3.0875,-11.2125 -6.625,-15.9375 -2.8125,-3.8 -6.16875,-7.18125 -9.71875,-10.28125 -3.625,-2.9375 -8.74375,-1.54375 -12.78125,-3.40625 -4.85,-3.55 -7.26875,-9.6625 -12.53125,-12.75 -7,1.3375 -12.76875,6 -17.71875,10.875 -5.6875,5.625 -13.06875,9.28125 -18.28125,15.40625 -5.825,6.65 -12.96875,11.93125 -20.21875,16.90625 11.05,-15.95 22.56875,-31.5875 34.09375,-47.1875 0.3125,-0.75 0.96875,-2.25 1.28125,-3 -12.3625,4.675 -24.99375,8.76875 -37.84375,11.96875 -21.9375,4.2 -44.1,7.025 -66.0625,11.0625 -3.3125,0.5 -6.65,1.43125 -10,1.09375 -5.3375,-1.875 -9.49375,-6 -13.90625,-9.375 1.75,-4.625 3.125,-9.425 5.3125,-13.875 0.925,-2.3625 3.51875,-3.15 5.65625,-4.0625 17.05,-6.1 33.8625,-12.8875 50.875,-19.125 4.6875,-1.725 9.6,-2.725 14.5625,-3.375 17.5625,-2.2625 35,-5.25625 52.5625,-7.59375 4.825,-0.7625 9.8,-0.9625 14.5,-2.4375 2.125,-0.6625 2.9375,-2.9875 4.0625,-4.6875 12.7375,-23.5125 26.29375,-46.58125 38.90625,-70.15625 -11.9125,6.175 -24.05625,11.9 -35.84375,18.3125 -13.4625,7.5625 -27.65625,13.75 -41.09375,21.375 -13.3875,6.5875 -26.34375,14.2375 -40.40625,19.375 -17.325,5.7625 -34.61875,11.55 -51.96875,17.25 -1.25,-4.6875 -3.075,-9.69375 -1.5,-14.53125 1.0625,-3.225 4.275,-4.8 6.9375,-6.5 21.375,-12.9125 42.54375,-26.16875 63.96875,-38.96875 13.7875,-6.75 28.09375,-12.375 42.09375,-18.6875 23.875,-10.4375 47.775,-20.875 71.625,-31.375 3.425,-1.3625 5.31875,-4.6875 7.03125,-7.75 17.9125,-32.3875 36.59375,-64.34375 54.53125,-96.71875 2.1125,-3.8375 4.60625,-7.54375 5.71875,-11.84375 -6.4125,2.8625 -11.71875,7.49375 -17.28125,11.65625 C 698.89375,116.79375 633.7625,164.5875 568.75,212.5 c -3.5375,2.4625 -7.34375,4.54375 -11.28125,6.28125 -26.3375,11.5 -52.15625,24.125 -78.65625,35.25 -4.0625,-4.7625 -7.8625,-9.8375 -12.6875,-13.875 -10.2875,-8.525 -21.5,-16.7375 -34.8125,-19.625 -0.1875,-21.45 -0.0625,-42.89375 -0.0625,-64.34375 0.075,-6.65 -1.15,-13.225 -1.25,-19.875 -0.4875,-16.4875 -3.2625,-32.85625 -7.5,-48.78125 C 418.1125,69.93125 410.36875,53.1 399.21875,38.75 l -1.25,0 z M 249.625,363.84375 c 3.48809,0.068 6.95938,0.94375 10.34375,1.75 12.4,3.025 25.075,4.83125 37.375,8.28125 2.6625,7.25 4.20625,14.83125 6.15625,22.28125 -14.4875,1.65 -29.04375,2.36875 -43.53125,3.90625 -10.6375,-0.775 -21.2875,-1.95 -31.875,-3.1875 -5.375,-3.1875 -9.71875,-7.80625 -14.59375,-11.65625 -5.8375,-5.025 -12.2875,-9.3375 -17.625,-14.9375 16.6875,-2.55 33.525,-3.93125 50.25,-6.21875 1.16875,-0.1875 2.3373,-0.24141 3.5,-0.21875 z m 300.75,0 c 1.15469,-0.0232 2.30938,0.0344 3.46875,0.21875 16.3125,2.3625 32.78125,3.3625 49.03125,6.1875 -6,6.2875 -13.31875,11.01875 -19.78125,16.78125 -4.3375,3.325 -8.05625,7.775 -13.09375,10 -13.325,1.1875 -26.75,4.1625 -40.125,2.0625 -11.1375,-0.9625 -22.29375,-1.69375 -33.40625,-2.96875 1.9625,-7.4375 3.50625,-14.98125 6.15625,-22.21875 12.325,-3.5 25.04375,-5.28125 37.46875,-8.34375 3.36562,-0.80625 6.81719,-1.64902 10.28125,-1.71875 z M 300.03125,422.3125 c 3.79531,0.0109 7.5875,0.125 11.375,0.25 3.05,-0.3375 4.41875,2.8125 5.53125,5.0625 2.2125,5.7125 5.35,10.95 8.375,16.25 -1.475,2.25 -2.725,5.08125 -5.5,5.96875 -4.5375,1.725 -9.025,3.675 -13.75,4.875 -3.8375,-0.9375 -5.95,-5.06875 -9.8125,-6.03125 -3.65,0.7375 -7.4375,3.18125 -11.125,1.09375 -4.0625,-2.4625 -7.95,-5.45 -11.125,-9 -1.7125,-3.5125 -2.5625,-7.43125 -4.875,-10.65625 6.6375,-2.15 12.69375,-5.95 19.53125,-7.5 3.78125,-0.25625 7.57969,-0.32344 11.375,-0.3125 z m 202.15625,0.0625 c 1.75937,-0.0109 3.52188,-0.0156 5.28125,0 8.475,0 15.53125,5.30625 23.34375,7.84375 -2.0125,1.6375 -3.74375,3.65625 -4.40625,6.21875 -1.55,6.375 -7.675,10.11875 -12.9375,13.28125 -3.85,2.6625 -7.875,-1.16875 -11.875,-0.90625 -2.8875,1.6625 -5.35625,3.95 -7.96875,6 -6.5,-3.1125 -15.7625,-3.24375 -18.875,-10.84375 4.0625,-7.05 6.90625,-14.78125 11.59375,-21.46875 5.27813,0.009 10.56563,-0.0922 15.84375,-0.125 z M 343.625,468.5625 c 7.8125,7.325 15.35625,14.975 23.65625,21.75 0.425,5.85 0.28125,11.73125 0.0937,17.59375 -2.75,-1.5 -5.6,-2.8125 -8.0625,-4.75 -2.5125,-2.475 -3.69375,-6.11875 -6.71875,-8.09375 -3.7375,-2.55 -8.1875,-4.3 -10.875,-8.125 -4.25,-5.75 -10.33125,-9.675 -15.65625,-14.3125 5.825,-1.4625 11.675,-2.8375 17.5625,-4.0625 z m 112.5625,0.0625 c 5.6,0.9625 11.15,2.30625 16.625,3.84375 -5.325,4.75 -11.5375,8.64375 -15.8125,14.46875 -3.8125,5.5875 -11.725,6.51875 -14.875,12.71875 -2.1625,4.2625 -6.78125,6.11875 -10.78125,8.21875 -0.05,-5.3625 -0.6875,-10.80625 0.375,-16.09375 3.7625,-4.9625 8.84375,-8.71875 13.40625,-12.90625 3.775,-3.325 7.0875,-7.1375 11.0625,-10.25 z m -215.28125,53.84375 c 4.32618,-0.0567 8.725,1.50313 12.78125,2.84375 0.0375,4.35 0.81875,9.06875 -1.46875,13.03125 -2.6375,5.15 -7.50625,10.4875 -13.90625,9.3125 -1.25,-4.9125 -6.46875,-7.45625 -7.40625,-12.46875 -1.0625,-4.0875 -0.1875,-9.69375 4.1875,-11.46875 1.88672,-0.85156 3.84605,-1.22424 5.8125,-1.25 z m 316.25,0 c 1.87175,-0.0488 3.75,0.19531 5.59375,0.90625 4.65,1.2 6.225,6.7875 5.25,11 -0.7125,5.4 -6.01875,8.26875 -7.78125,13.21875 -6.4375,1.3375 -10.88125,-4.18125 -13.65625,-9.15625 -2.2875,-3.9875 -1.50625,-8.71875 -1.53125,-13.09375 3.89297,-1.22031 8.00715,-2.76765 12.125,-2.875 z m -97.25,63.21875 c 5.31956,-0.22166 10.7,2.5875 13.28125,7.3125 2.5375,6.1875 1.86875,13.025 1.78125,19.5625 -13.1,-2.1375 -26.38125,-3.025 -39.34375,-5.875 -7.175,-1.3125 -10.7375,-8.35625 -15.875,-12.71875 -12.9,-0.375 -25.8,-0.18125 -38.6875,-0.15625 -2.775,-0.3 -4.26875,2.24375 -5.90625,3.96875 -3.2625,3.8 -6.8625,7.9375 -12.0625,8.875 -12.9625,2.875 -26.225,3.75625 -39.3125,5.90625 0.125,-7.2375 -1.4375,-15.525 3.3125,-21.6875 3.5875,-4.725 9.98125,-5.975 15.53125,-4.625 7.8875,0.925 12.94375,9.175 21.15625,8.875 2.1875,-0.2 4.9875,0.59375 6.6875,-1.21875 1.525,-2.3875 1.86875,-5.29375 2.65625,-7.96875 1.1625,2.1625 2.3375,4.3125 3.5,6.5 15.175,0.0375 30.3375,0.0375 45.5,0 1.1625,-2.1875 2.30625,-4.35625 3.46875,-6.53125 0.7,3.0875 1.60625,6.15 3.15625,8.9375 4.125,0.1375 8.5875,0.8375 12.4375,-1.0625 5.425,-2.725 10.0875,-7.4125 16.4375,-7.8125 0.74844,-0.15781 1.52131,-0.24958 2.28125,-0.28125 z"
         style="fill:#0d0906"
         inkscape:connector-curvature="0" />
      <path
         id="path4485"
         d="m 319.07,34.55 c 6.71,8.08 11.32,17.7 14.79,27.56 4.41,15.28 7.73,30.99 8.36,46.93 1.02,6.93 1.16,13.96 -0.04,20.87 -0.48,15.44 0.08,30.9 -0.25,46.35 -3.39,-0.74 -6.65,-1.93 -9.98,-2.84 -4.27,-0.8 -8.64,-0.28 -12.95,-0.42 0.01,-46.15 -0.11,-92.3 0.07,-138.45 z"
         inkscape:connector-curvature="0"
         style="fill:#fefefe" />
      <path
         id="path4489"
         d="m 599.49,66.31 c 6.75,-4.86 13.26,-10.1 20.38,-14.43 -7.18,15.36 -16.48,29.59 -24.53,44.49 -5.79,10.75 -12.34,21.07 -17.98,31.9 -2.04,3.78 -4.12,8.13 -8.37,9.82 -21.95,9.69 -44.02,19.1 -65.93,28.88 -10.28,4.66 -20.98,8.48 -30.73,14.24 -10.77,6.58 -21.46,13.27 -32.3,19.7 -5.71,3.48 -11.16,7.51 -17.48,9.83 -2.19,5.95 -1.77,12.69 1.54,18.14 15.31,-4.75 30.51,-9.84 45.65,-15.11 16.66,-7.18 32.24,-16.57 48.57,-24.45 12.37,-5.91 23.91,-13.54 36.8,-18.34 -2.82,6.34 -6.6,12.17 -9.86,18.28 -5.96,10.72 -11.88,21.47 -17.98,32.11 -1.58,3.03 -5.32,3.44 -8.34,3.88 -15.68,1.95 -31.23,4.75 -46.92,6.63 -9.11,1 -17.43,5.03 -25.91,8.19 -8.96,3.51 -18.02,6.76 -27.03,10.13 -2.17,0.87 -4.72,1.78 -5.57,4.2 -1.79,4.09 -3.71,8.25 -4.09,12.75 2.8,3.66 6.99,6.19 11.08,8.22 5.04,0.85 10.08,-1.01 15.07,-1.65 14.71,-2.66 29.53,-4.68 44.26,-7.25 9.34,-1.5 17.94,-5.76 27.24,-7.46 -4.56,8.17 -10.7,15.28 -16.02,22.94 -2.86,4 -5.32,8.36 -9,11.7 -13.04,-0.89 -25.96,-3 -38.95,-4.29 -5.45,-0.51 -10.68,1.29 -15.94,2.32 -8.35,1.8 -16.84,3.09 -25.01,5.61 -2.12,0.48 -2.49,2.89 -3.07,4.63 -1.43,5.43 -3.11,10.82 -3.86,16.4 10.11,1.88 20.43,2 30.63,3.16 9.1,1.19 18.11,-1.31 27.2,-1.38 -5.9,6.5 -13.26,11.37 -19.84,17.12 -2.27,1.99 -4.64,3.86 -7.13,5.57 -6.76,-1.97 -12.76,-6.7 -20.05,-6.63 -5.04,-0.06 -10.08,-0.34 -15.11,-0.07 -2.53,-0.1 -4.19,2.04 -5.98,3.45 0.89,-6.66 0.87,-13.42 1.9,-20.06 0.71,-5.31 7.61,-7.06 8.12,-12.4 -0.19,-7.01 -0.56,-14.03 -1.38,-21 0.56,-3.9 5.19,-5.47 6.26,-9.16 0.15,-6.45 -3.78,-11.92 -6.24,-17.61 -1.74,-4.78 0.54,-9.72 1.15,-14.49 0.85,-5.99 -0.68,-11.94 -1.67,-17.81 -1.29,-7.89 -5.96,-14.58 -8.86,-21.89 21.63,-10.09 43.39,-19.92 65.13,-29.77 6.68,-2.97 12.32,-7.67 18.16,-11.97 44,-32.36 87.99,-64.72 131.99,-97.07 z"
         inkscape:connector-curvature="0"
         style="fill:#f30202" />
      <path
         id="path4491"
         d="m 20.01,51.88 c 2.78,1.57 5.46,3.32 8.01,5.23 48.35,35.59 96.7,71.19 145.08,106.74 5.27,3.8 10.3,8.04 16.23,10.81 22.17,10.31 44.64,19.96 66.65,30.61 -1.55,3.96 -3.39,7.78 -5.21,11.61 -3.38,6.86 -4.21,14.57 -5.41,22.03 -1.02,6.45 3.01,12.65 1.43,19.05 -2.83,5.47 -7.12,10.54 -7.48,16.98 -1.1,4.7 4.81,6.25 6.2,10.04 0.9,7.34 -1.03,14.66 -1.09,21.98 0,6.04 8.51,6.99 8.5,12.96 0.58,5.75 0.99,11.51 1.21,17.28 -6.29,-1.35 -12.75,-1.13 -19.14,-1.15 -7.91,-0.19 -14.52,4.84 -21.85,7.02 -4.2,-3.14 -8.23,-6.5 -12.24,-9.89 -5.05,-4.32 -10.62,-8.08 -15.02,-13.12 9.75,0.01 19.42,2.75 29.17,1.35 9.93,-1.22 20.07,-0.98 29.82,-3.35 -1.35,-6.35 -2.27,-12.92 -5.08,-18.82 -0.55,-1.68 -2.45,-1.9 -3.85,-2.45 -9.75,-3.01 -19.95,-4.04 -29.81,-6.61 -7.69,-2.01 -15.54,0.26 -23.25,0.88 -7.68,0.65 -15.28,1.98 -22.96,2.64 -3.2,0.29 -4.78,-3.13 -6.48,-5.24 -6.57,-9.99 -14.41,-19.12 -20.47,-29.46 9.8,2.02 19.01,6.25 28.92,7.82 17.71,2.9 35.45,5.57 53.13,8.63 4.62,1.19 8.49,-2.07 11.96,-4.58 1.32,-1.16 3.06,-2.15 3.66,-3.88 -0.58,-4.57 -2.35,-8.93 -4.41,-13.02 -1.15,-2.47 -4,-3.18 -6.31,-4.13 -13.65,-4.83 -27.05,-10.33 -40.64,-15.32 -5.25,-1.95 -10.86,-2.51 -16.37,-3.29 -14.3,-1.9 -28.54,-4.3 -42.84,-6.16 -2.45,-0.47 -5.61,-0.58 -6.92,-3.1 -6.5,-11.26 -12.8,-22.65 -19.17,-34 -3.07,-5.64 -6.61,-11.03 -9.1,-16.97 12.64,4.76 24.04,12.13 36.18,17.97 10.81,4.98 20.95,11.26 31.71,16.34 7.63,3.64 14.95,8.07 23.1,10.53 13.46,4.03 26.56,9.15 40.05,13.06 2.76,-5.23 4.24,-11.84 1.51,-17.38 -2.24,-2.27 -5.55,-3.01 -8.16,-4.77 -14.38,-8.99 -28.92,-17.7 -43.36,-26.58 -3.45,-2.08 -7.12,-3.77 -10.81,-5.35 -27.15,-11.77 -54.17,-23.84 -81.38,-35.47 -3.1,-1.33 -6.44,-2.87 -8.07,-6.02 C 53.22,111.45 40.77,89.58 28.38,67.68 25.55,62.43 22.32,57.39 20.01,51.88 z"
         inkscape:connector-curvature="0"
         style="fill:#f30202" />
      <path
         id="path4493"
         d="m 305.24,56.87 c 0.45,1.3 1.43,2.72 0.45,4.1 -3.81,12.01 -6.43,24.4 -7.6,36.95 -0.27,5.35 0.06,10.71 -0.08,16.07 -0.09,4.67 -1.14,9.27 -1.02,13.95 0.06,15.41 0.06,30.82 -0.04,46.23 0.06,1.37 -1.12,2.34 -1.69,3.48 -0.59,-21.53 -0.1,-43.08 -0.29,-64.62 0.77,-13.08 2.23,-26.18 5.16,-38.98 1.27,-5.85 3.79,-11.34 5.11,-17.18 z"
         inkscape:connector-curvature="0"
         style="fill:#fefefe" />
      <path
         id="path4495"
         d="m 369.4,248.2 c 8.18,2.6 16.44,6.4 21.95,13.24 3.59,4.42 5.39,9.94 6.77,15.4 -4.04,2.79 -6.2,7.31 -9.56,10.73 -14.84,10.25 -32.99,13.31 -49.81,18.8 12.12,-0.22 23.85,-3.77 35.3,-7.44 6.51,-2.07 12.17,-5.97 18.06,-9.31 -0.15,3.75 -1.24,7.61 0.07,11.28 1.04,3.14 1.32,7.36 -1.58,9.61 -4.78,3.43 -10.29,5.69 -15.05,9.17 3.25,-1.01 6.35,-2.4 9.49,-3.69 -1.04,7.64 -2.05,15.32 -1.99,23.06 -0.07,2.43 0.2,5.42 -1.93,7.13 -8.07,5.22 -16.86,9.2 -25.3,13.75 4.69,-0.6 8.81,-3.13 13.35,-4.3 -1.94,5.95 -4.24,11.79 -6.78,17.5 -0.84,2.06 -2.71,3.36 -4.33,4.74 -4.53,3.57 -8.06,8.2 -12.57,11.77 -3.7,2.92 -6.87,6.43 -10.51,9.42 -5.55,4.53 -10.09,10.25 -16.17,14.14 1.75,-8.5 4.61,-16.72 6.82,-25.11 4.18,-15.7 8.74,-31.3 13.13,-46.95 1.23,-3.9 1.43,-8.24 3.63,-11.76 5.2,-2.93 11.47,-3.23 16.69,-6.21 -7.57,1.02 -14.86,3.4 -22.26,5.19 -4.69,1.28 -9.52,1.98 -14.15,3.44 5.21,0.6 10.34,-0.83 15.42,-1.83 -7.08,26.5 -14.59,52.87 -21.56,79.39 -7.17,-3.94 -11.72,-10.98 -18.06,-15.93 -4.21,-3.4 -7.84,-7.45 -12.1,-10.79 -4.17,-3.79 -8.89,-7.53 -10.86,-13.01 -2.21,-5.21 -3.07,-11.06 -6.39,-15.74 -3.59,-3.26 -8.16,-5.17 -12.02,-8.07 -0.45,-9.98 -1.5,-19.92 -2.23,-29.88 3.21,1.64 6.39,3.65 10.06,4.01 -6.04,-3.61 -12.95,-6.03 -17.88,-11.27 -0.16,-6.59 0.81,-13.15 0.89,-19.74 6.92,3.15 13.71,6.68 21.01,8.91 12.04,3.57 24.33,6.24 36.69,8.42 4.17,0.72 8.37,2.07 12.65,1.4 -4.35,-1.37 -8.86,-2.21 -13.38,-2.75 0.8,-0.49 1.6,-0.96 2.42,-1.43 1.75,0.25 3.51,0.43 5.28,0.57 2.23,-3.99 3.22,-9.79 8,-11.5 2.1,3.93 4.29,7.81 6.67,11.58 4.85,-0.22 9.49,-1.71 14.2,-2.78 -1.9,-2.22 -4.43,-3.68 -7.05,-4.87 -0.92,-2.5 -1.98,-4.96 -2.6,-7.55 0.03,-1.67 1.74,-2.29 3.11,-2.49 8.71,-1.8 16.11,-7.11 23.07,-12.37 5.92,-5.12 12.22,-11.11 20.55,-11.3 0.97,5.45 3.95,10.68 3.22,16.33 -1.97,5.68 -6.27,10.07 -9.98,14.66 3.37,-1.54 7.9,-1.9 9.73,-5.57 0.51,-1.41 1.6,-0.47 2.12,0.39 4.12,-3.02 6.4,-7.69 9.51,-11.61 1.86,-2.35 0.49,-5.42 -0.39,-7.89 -3.6,-8.82 -12.03,-14.67 -20.71,-17.83 -2.22,-1.11 -4.27,0.54 -5.71,2.07 -4.76,4.85 -10.59,8.5 -16.58,11.63 6.07,-6.17 14.95,-9.17 19.63,-16.76 z"
         inkscape:connector-curvature="0"
         style="fill:#fefefe" />
      <path
         id="path4497"
         d="m 253.5,256.34 c 5.08,-3.85 11.05,-7.28 17.6,-7.34 1.81,1.14 3.21,2.79 4.75,4.25 6.32,6.22 14.31,10.29 21.29,15.67 -7.79,-3.48 -15.02,-8.14 -21.8,-13.27 -2.47,-1.87 -4.67,-5.83 -8.31,-4.42 -10.1,3.42 -18.38,11.75 -21.82,21.82 -1.39,3.56 2.62,5.72 4.18,8.38 2.15,2.68 3.98,7.8 8.29,6.61 2.67,2.78 6.09,4.67 9.73,5.9 -3.65,-5.11 -9.12,-9.41 -10.36,-15.86 0.43,-5.33 2.44,-10.37 4.09,-15.4 11.07,1.31 18.01,10.83 26.81,16.5 5.13,2.94 10.33,6.01 16.15,7.36 1.27,0.31 3.24,0.87 3,2.59 -0.47,2.69 -0.91,6 -3.4,7.62 -2.11,1.47 -4.21,2.96 -6.14,4.66 2.83,0.63 5.66,1.28 8.53,1.68 -0.82,0.49 -1.63,0.98 -2.44,1.47 -14.94,-3.25 -29.79,-7.11 -44.22,-12.18 -3.96,-1.56 -8.61,-2.96 -10.7,-7.01 -1.95,-3.34 -4.37,-6.42 -7.51,-8.71 1.09,-8.12 5.57,-15.6 12.28,-20.32 z"
         inkscape:connector-curvature="0"
         style="fill:#fefefe" />
      <path
         id="path4499"
         transform="scale(0.8,0.8)"
         d="m 137.21875,327.3125 c -2.9375,2.425 -5.4375,5.3125 -7.5,8.5 3.1,0.6 6.59375,0.625 9.15625,2.75 3.8125,3.2 8.4,6.64375 8.875,12.03125 -3.6,1.9875 -7,4.4125 -9.75,7.5 -4.425,5.1625 -11.775,4.50625 -17.875,5.40625 -0.45,-4.9625 -1.6,-10.4625 0.75,-15.125 3.2,-3.5875 7.15625,-6.65 9.15625,-11.1875 -6.1625,2.1 -10.9375,6.59375 -15.375,11.15625 -10.0125,8.925 -17.05625,20.45 -26.03125,30.3125 -3.0625,3.85 -6.99375,7.075 -9.34375,11.4375 -1.5375,4.225 1.09375,9.05625 -1.15625,13.15625 -5.125,9.7375 -9.375,19.8875 -14.75,29.5 -4.475,11.9625 9.5625,24.825 21.375,20.875 l -8.4375,-1.65625 c 1.9375,-2.275 3.7,-4.6875 5.4375,-7.125 3.65,2.6 6.4375,6.11875 9.75,9.09375 l -1,-1.03125 0.6875,0.375 c 1.525,-1.35 3.05625,-2.6875 4.59375,-4 18.325,16.3 37.59375,31.53125 56.28125,47.40625 6.5875,5.7 13.95,10.51875 19.75,17.09375 -1.075,1.3 -2.14375,2.59375 -3.21875,3.90625 3.3875,3.1375 8.925,4.8125 10,9.8125 1.1625,5.1125 4.05,10.19375 9,12.46875 5.25,2.35 10.775,-1.99375 16.125,-0.28125 15.75,4.3125 29.4125,14.375 40.25,26.375 1.7,1.4875 3.29375,3.675 5.78125,3.6875 13.5875,1.1125 27.6375,1.9125 40.1875,7.75 9.175,4.0375 16.15,11.9375 20.625,20.75 2.8875,6.4125 3.60625,13.54375 4.28125,20.46875 0.4625,7.525 1.825,15.03125 1.25,22.59375 -0.575,8.375 -1.9125,16.66875 -3.4375,24.90625 2,3.7375 4.60625,8.0375 9.46875,7.9375 1.9375,-6.25 3.5875,-12.5875 4.8125,-19 1.5375,-7.9875 0.16875,-16.10625 -0.96875,-24.03125 -1.0375,-7.1375 -4.71875,-13.75 -4.71875,-21.0625 0.05,-6.0875 -0.575,-12.475 1.9375,-18.1875 2.7625,-4.625 7.625,-8.29375 13.0625,-8.84375 7.35,-0.375 14.25625,2.88125 20.15625,6.96875 3.4875,2.4625 7.89375,3.1125 12.03125,2.25 2.875,-4.5 3.1,-10.3625 1.5,-15.375 -1.6625,-0.975 -3.23125,-2.08125 -4.71875,-3.28125 -21.075,-18.1 -42.1625,-36.15 -63.5,-53.9375 C 294.59375,513.60625 287,508.05 280.625,501.1875 c 4.625,-7 4.975,-15.56875 4.4375,-23.65625 -0.6,-7.75 1.74375,-15.70625 -0.59375,-23.28125 -3.1375,-5.1875 -9.2625,-7.475 -12.875,-12.25 -1.6,-3.2625 -2.03125,-7.33125 -5.34375,-9.46875 -21.975,-18.45 -44.075,-36.75625 -66.25,-54.96875 -10.425,-8.725 -22.3375,-15.8375 -31.1875,-26.3125 -5.25,-5.2875 -12.04375,-8.70625 -17.15625,-14.15625 -3.9375,-4.425 -9.3375,-6.99375 -14.4375,-9.78125 z m 103.6875,195.15625 c 4.32618,-0.0567 8.725,1.50313 12.78125,2.84375 0.0375,4.35 0.81875,9.06875 -1.46875,13.03125 -2.6375,5.15 -7.50625,10.4875 -13.90625,9.3125 -1.25,-4.9125 -6.46875,-7.45625 -7.40625,-12.46875 -1.0625,-4.0875 -0.1875,-9.69375 4.1875,-11.46875 1.88672,-0.85156 3.84605,-1.22424 5.8125,-1.25 z"
         style="fill:#f3f306"
         inkscape:connector-curvature="0" />
      <path
         id="path4501"
         transform="scale(0.8,0.8)"
         d="m 661.53125,327.34375 c -10.3875,4.0375 -16.99375,13.3 -26.09375,19.25 -5.875,3.625 -9.26875,9.94375 -14.84375,13.90625 -30.2875,23.275 -59.33125,48.09375 -88.65625,72.53125 -3.05,2.0375 -3.1625,5.93125 -4.75,8.90625 -3.6375,4.7375 -9.6625,7.1125 -12.875,12.25 -1.6,4.25 -1.0375,8.925 -0.8125,13.375 0.525,7.05 -0.0375,14.125 0.25,21.1875 0.0375,4.525 2.425,8.4875 4.4375,12.375 -7.225,7.6625 -15.775,13.875 -23.75,20.6875 -19.8875,16.75 -39.79375,33.5 -59.40625,50.5625 -2.3625,1.9375 -4.975,3.5 -7.375,5.375 l -0.59375,1.15625 c -0.0125,4.725 1.80625,9.23125 3.15625,13.71875 0.8875,-0.0125 2.69375,-0.0187 3.59375,-0.0312 8.175,0.4125 13.31875,-7.7 21.15625,-8.8125 6.275,-1.9 13.46875,-0.4375 17.90625,4.5625 5.45,5.225 4.5625,13.40625 4.6875,20.28125 0.2,7.825 -3.60625,14.95 -4.78125,22.5625 -1.1875,7.925 -2.48125,16.04375 -0.96875,24.03125 1.225,6.3875 2.8625,12.69375 4.8125,18.90625 4.85,0.1375 7.48125,-4.125 9.46875,-7.875 -1.5875,-8.6875 -3.0375,-17.425 -3.5,-26.25 -0.4125,-7.125 0.8875,-14.19375 1.3125,-21.28125 0.825,-8.125 1.66875,-16.69375 6.09375,-23.78125 4.4625,-7.3875 10.775,-13.88125 18.75,-17.40625 12.5375,-5.85 26.58125,-6.68125 40.15625,-7.78125 2.8,-0.0375 4.55625,-2.59375 6.46875,-4.28125 10.725,-11.7875 24.25625,-21.5875 39.78125,-25.8125 5.5875,-1.7 11.6,3.19375 16.875,-0.15625 4.5,-2.475 6.93125,-7.15625 8.09375,-11.96875 0.95,-4.7875 5.9125,-6.58125 9.5625,-8.90625 -0.8,-1.6625 -1.575,-3.3 -2.375,-4.9375 4.3875,-5.3 10.0875,-9.2 15.375,-13.5 19.55,-16.4125 39.3125,-32.56875 58.6875,-49.15625 2.4375,-2.325 5.11875,1.1625 7.34375,2.1875 2.3,-3.1625 4.95,-6.075 8.1875,-8.3125 1.9,2.35 3.8,4.71875 5.6875,7.09375 1.725,-0.0125 3.41875,-0.0625 5.15625,-0.0625 2.8875,-3.3375 6.89375,-6.0625 8.28125,-10.4375 1,-3.6625 0.23125,-7.6125 -1.71875,-10.8125 -4.9125,-8.65 -8.60625,-17.89375 -13.28125,-26.65625 C 717.66875,398.65625 722.5125,391.2 717.1875,386.625 704.3375,373.1 694.30625,357.13125 680.34375,344.65625 677.20625,341.81875 673.5,339.625 669.5,338.25 c 2.225,3.8375 5.7,6.69375 8.25,10.28125 3.025,4.5 1.10625,10.04375 0.71875,14.96875 -5.8125,-0.8875 -12.7125,-0.24375 -17.125,-4.84375 -2.9625,-3.2625 -6.45,-5.975 -10.3125,-8.0625 1.475,-8.15 9.6375,-13.64375 17.3125,-15.34375 -1.5625,-3.1875 -4.025,-5.75625 -6.8125,-7.90625 z m -104.375,195.125 c 1.87175,-0.0488 3.75,0.19531 5.59375,0.90625 4.65,1.2 6.225,6.7875 5.25,11 -0.7125,5.4 -6.01875,8.26875 -7.78125,13.21875 -6.4375,1.3375 -10.88125,-4.18125 -13.65625,-9.15625 -2.2875,-3.9875 -1.50625,-8.71875 -1.53125,-13.09375 3.89297,-1.22031 8.00715,-2.76765 12.125,-2.875 z"
         style="fill:#f3f306"
         inkscape:connector-curvature="0" />
      <path
         id="path4503"
         d="m 98.78,300.25 c 6.94,-5.82 14.75,-10.46 21.58,-16.43 0.86,2.79 1.44,6.01 4,7.82 17.69,14.37 35.11,29.06 53.1,43.05 5.12,3.5 9.46,7.98 14.39,11.68 1.49,0.82 3.13,-0.78 4.63,-1.02 -1.77,3.47 -3.82,6.84 -6.63,9.57 -13.81,14.28 -25.54,30.34 -38.23,45.58 -2.59,2.97 -4.62,6.39 -6.08,10.05 1.88,1.09 3.77,2.18 5.63,3.31 -3.3,2.41 -7.82,-0.28 -8.46,-4.01 1.47,-2.7 3.58,-4.98 5.2,-7.59 -14.25,-12.48 -28.96,-24.41 -43.4,-36.65 -10.16,-8.43 -19.65,-17.71 -30.71,-24.98 -1.59,-0.67 -3.33,0.1 -4.97,0.15 5.22,-8.96 11.59,-17.16 17.24,-25.84 -1.51,-0.67 -3.01,-1.33 -4.51,-1.98 -2.19,-2.72 -4.42,-5.39 -6.77,-7.97 2.7,-3.04 5.47,-6.01 8.13,-9.08 1.5,-1.67 3.03,-3.53 5.28,-4.16 3.54,2.79 6.42,6.48 10.58,8.5 z"
         inkscape:connector-curvature="0"
         style="fill:#0d0906" />
      <path
         id="path4505"
         d="m 518.62,283.8 c 6.85,5.95 14.65,10.65 21.62,16.45 4.18,-2.02 7.01,-5.79 10.61,-8.51 2.48,0.76 4.1,2.92 5.77,4.77 2.45,2.9 5.05,5.65 7.62,8.44 -1.43,1.69 -2.83,3.42 -4.38,5 -2.05,2.03 -4.4,3.7 -6.75,5.37 5.67,8.32 11.54,16.5 17.01,24.96 -2.04,0.21 -4.06,0.37 -6.06,0.79 -5.03,4.35 -10.78,7.81 -15.55,12.47 -18.86,16.61 -38.56,32.24 -57.48,48.78 1.69,2.83 4.83,5.17 4.97,8.68 -1.1,3.11 -5.34,4.98 -8.18,2.86 1.85,-1.12 3.73,-2.2 5.61,-3.27 -1.41,-3.42 -3.08,-6.76 -5.57,-9.52 -12.33,-14.63 -23.51,-30.25 -36.81,-44.05 -1.72,-1.84 -3.43,-3.67 -5.1,-5.55 -1.46,-1.76 -2.26,-3.95 -3.26,-5.98 1.91,0.45 4.3,2.01 5.83,-0.03 6.93,-6.46 14.71,-11.89 22,-17.92 14.97,-11.63 29.3,-24.05 44.1,-35.88 2.59,-1.8 3.13,-5.06 4,-7.86 z"
         inkscape:connector-curvature="0"
         style="fill:#0d0906" />
      <path
         id="path4511"
         d="m 88.37,307.25 c 0.95,-1.61 3.49,0.03 2.25,1.51 -0.95,1.6 -3.49,-0.04 -2.25,-1.51 z"
         inkscape:connector-curvature="0"
         style="fill:#fefefe" />
      <path
         id="path4513"
         d="m 548.31,307.03 c 1.12,-1.32 3.39,0.55 2.38,1.93 -1.14,1.31 -3.41,-0.56 -2.38,-1.93 z"
         inkscape:connector-curvature="0"
         style="fill:#fefefe" />
      <path
         id="path4515"
         d="m 553.11,315.32 c 2.35,-1.67 4.7,-3.34 6.75,-5.37 0.57,1.47 0.55,2.84 -0.05,4.11 -0.58,0.07 -1.74,0.2 -2.31,0.27 6.86,8.4 13.59,17.08 18.11,27.02 -0.62,1.18 -1.23,2.37 -1.82,3.56 -2.86,-2.12 -6.18,-3.5 -9.73,-3.84 2,-0.42 4.02,-0.58 6.06,-0.79 -5.47,-8.46 -11.34,-16.64 -17.01,-24.96 z"
         inkscape:connector-curvature="0"
         style="fill:#fefefe" />
      <path
         id="path4517"
         d="m 81.56,312.96 c 1.5,0.65 3,1.31 4.51,1.98 -5.65,8.68 -12.02,16.88 -17.24,25.84 -0.98,1.58 -2.17,3 -3.36,4.43 -0.74,-1.36 -1.47,-2.72 -2.2,-4.07 3.95,-5.79 6.94,-12.15 10.94,-17.9 2.01,-3.51 5.07,-6.25 7.04,-9.77 0.07,-0.13 0.23,-0.38 0.31,-0.51 z"
         inkscape:connector-curvature="0"
         style="fill:#fefefe" />
      <path
         id="path4519"
         d="m 78.56,314.36 c 0.67,-0.22 2.01,-0.67 2.69,-0.89 -1.97,3.52 -5.03,6.26 -7.04,9.77 -4,5.75 -6.99,12.11 -10.94,17.9 0.73,1.35 1.46,2.71 2.2,4.07 -1.92,-1.18 -3.83,-2.36 -5.75,-3.53 1.34,-3.42 3.55,-6.36 5.55,-9.4 4.23,-6.11 7.92,-12.69 13.29,-17.92 z"
         inkscape:connector-curvature="0"
         style="fill:#0d0906" />
      <path
         id="path4521"
         d="m 557.5,314.33 c 0.57,-0.07 1.73,-0.2 2.31,-0.27 5.2,5.6 9.54,11.9 14.21,17.93 2.09,3.04 4.05,6.21 5.25,9.72 -1.82,1.08 -3.64,2.16 -5.48,3.2 0.59,-1.19 1.2,-2.38 1.82,-3.56 -4.52,-9.94 -11.25,-18.62 -18.11,-27.02 z"
         inkscape:connector-curvature="0"
         style="fill:#0d0906" />
      <path
         id="path4527"
         d="m 370.94,358.01 c 1.6,-3.36 5.13,-4.99 8.05,-6.99 -0.41,3.05 -0.88,6.9 1.93,9.01 3.6,2.34 7.84,3.39 11.74,5.13 -2.93,3.88 -5.59,8.95 -10.73,10.12 -5.44,0.82 -10.77,-1.1 -15.91,-2.59 1.13,-5.04 2.55,-10.06 4.92,-14.68 z"
         inkscape:connector-curvature="0"
         style="fill:#f30202" />
      <path
         id="path4529"
         d="m 445.95,351.47 c 1.67,1.88 3.38,3.71 5.1,5.55 13.3,13.8 24.48,29.42 36.81,44.05 2.49,2.76 4.16,6.1 5.57,9.52 -1.88,1.07 -3.76,2.15 -5.61,3.27 -0.15,-0.44 -0.45,-1.31 -0.6,-1.75 -2.56,-7.51 -8.55,-13 -13.4,-19.03 -8.08,-10.05 -17.02,-19.4 -24.62,-29.83 0.46,-0.89 0.92,-1.78 1.38,-2.67 -0.09,-0.24 -0.26,-0.73 -0.35,-0.98 -1.11,-2.87 -2.92,-5.39 -4.28,-8.13 z"
         inkscape:connector-curvature="0"
         style="fill:#fefefe" />
      <path
         id="path4531"
         d="m 262.38,352.29 c 2.43,1.56 5.16,3.14 6.31,5.95 2.1,4.72 3.49,9.7 5.19,14.57 -5.72,1.77 -11.86,3.76 -17.85,2.22 -4.48,-1.7 -6.8,-6.26 -9.64,-9.8 4.07,-1.59 8.4,-2.61 12.2,-4.81 2.47,-1.92 2.75,-5.39 3.79,-8.13 z"
         inkscape:connector-curvature="0"
         style="fill:#f30202" />
      <path
         id="path4533"
         d="m 151.62,400.5 c 12.69,-15.24 24.42,-31.3 38.23,-45.58 -0.28,1.55 -0.55,3.12 -0.64,4.7 -0.28,2.12 0.38,4.66 -1.26,6.37 -8.13,9.85 -16.5,19.51 -24.66,29.33 -4.36,5.19 -9.32,10.21 -11.52,16.77 -0.15,0.45 -0.45,1.33 -0.6,1.77 -1.86,-1.13 -3.75,-2.22 -5.63,-3.31 1.46,-3.66 3.49,-7.08 6.08,-10.05 z"
         inkscape:connector-curvature="0"
         style="fill:#fefefe" />
      <path
         id="path4535"
         d="m 189.21,359.62 c 1.32,1.12 2.65,2.23 3.98,3.34 -8.74,10.99 -18.21,21.4 -26.45,32.79 -4.33,6 -8.89,12 -14.97,16.34 2.2,-6.56 7.16,-11.58 11.52,-16.77 8.16,-9.82 16.53,-19.48 24.66,-29.33 1.64,-1.71 0.98,-4.25 1.26,-6.37 z"
         inkscape:connector-curvature="0"
         style="fill:#0d0906" />
      <path
         id="path4537"
         d="m 445.75,362.91 c 1.48,-1.12 2.97,-2.23 4.48,-3.31 0.09,0.25 0.26,0.74 0.35,0.98 -0.46,0.89 -0.92,1.78 -1.38,2.67 7.6,10.43 16.54,19.78 24.62,29.83 4.85,6.03 10.84,11.52 13.4,19.03 -5.65,-4.11 -10.09,-9.58 -14.12,-15.22 -8.5,-11.81 -18.26,-22.63 -27.35,-33.98 z"
         inkscape:connector-curvature="0"
         style="fill:#0d0906" />
      <path
         id="path4539"
         d="m 570.67,361.58 c 2.46,-0.02 4.93,0.04 7.4,0.01 1.38,-0.01 2.75,-0.03 4.14,-0.03 -3.51,1.97 -8.13,2.51 -11.54,0.02 z"
         inkscape:connector-curvature="0"
         style="fill:#9e9f9d" />
      <path
         id="path4541"
         d="m 72.39,362.33 0.56,0.29 c 4.92,2.35 9.85,4.82 13.97,8.45 13.03,10.99 25.86,22.22 38.93,33.16 3.29,2.9 6.61,5.85 9.02,9.55 -4.73,-2.17 -8.41,-5.91 -12.38,-9.17 -11.56,-9.45 -22.69,-19.42 -34.22,-28.9 -4.74,-4.53 -10.65,-7.67 -15.07,-12.55 l -0.81,-0.83 z"
         inkscape:connector-curvature="0"
         style="fill:#9e9f9d" />
      <path
         id="path4543"
         d="m 548.3,374.23 c 5.27,-4.1 10.26,-9.38 17.11,-10.64 -3.21,3.49 -7.28,6 -10.96,8.94 -15,12.62 -29.85,25.42 -44.93,37.95 -1.57,1.25 -3.35,2.22 -5.18,3.03 0.97,-2.03 2.48,-3.71 4.2,-5.12 13.09,-11.57 26.57,-22.69 39.76,-34.16 z"
         inkscape:connector-curvature="0"
         style="fill:#9e9f9d" />
      <path
         id="path4545"
         d="m 230.05,369.91 c 0.13,-1.38 0.28,-2.84 1.08,-4.01 5.77,5.97 12.53,10.83 18.69,16.37 3.17,2.84 7.12,4.71 10.05,7.84 1.96,2.07 3.86,4.24 6.11,6.02 8.09,6.16 15.27,13.44 23.58,19.32 3.66,2.56 2.91,7.61 4.97,11.15 1.31,1.6 3.1,2.74 4.39,4.38 1.91,2.65 1.9,6.06 3,9.04 2.32,1.31 5.52,0.69 7.55,2.73 2.67,2.16 5.77,5.35 4.51,9.1 -3.43,3.44 -8.04,5.23 -12.49,6.93 -2.13,0.74 -3.02,2.96 -3.7,4.92 -0.81,-1.38 -1.48,-2.84 -2.09,-4.32 -13.03,-10.96 -25.6,-22.48 -38.81,-33.25 -3.99,-3.32 -7.45,-7.24 -11.6,-10.38 -5.29,-4.06 -10.56,-8.15 -15.66,-12.45 -1.03,-0.98 -2.23,-1.94 -2.69,-3.32 0.91,-2.3 2.76,-4.26 2.93,-6.81 0.47,-7.75 -0.45,-15.52 0.18,-23.26 z"
         inkscape:connector-curvature="0"
         style="fill:#9e9f9d" />
      <path
         id="path4547"
         d="m 396.84,375.76 c 3.99,-3.12 7.69,-6.59 11.38,-10.05 1.9,9.04 0.29,18.3 0.89,27.44 0.14,2.54 2.02,4.5 2.93,6.79 -0.97,2.51 -3.54,3.96 -5.48,5.69 -6.86,5.8 -14.42,10.77 -20.76,17.17 -10.43,9.25 -21.42,17.86 -31.61,27.39 -4.06,3.95 -9.86,6.49 -12.07,12.02 l -0.46,0.92 c -1.41,-1.75 -2.61,-3.96 -4.87,-4.68 -4.25,-1.52 -8.52,-3.38 -11.77,-6.6 -1.26,-3.78 1.88,-6.98 4.57,-9.15 2.02,-1.97 5.11,-1.44 7.47,-2.64 1.03,-2.78 1.11,-5.88 2.63,-8.48 1.52,-2.64 5,-3.82 5.63,-7.01 1.03,-3.16 1.15,-7.11 4.21,-9.15 8.27,-5.9 15.43,-13.16 23.5,-19.32 3.78,-2.93 6.42,-7.11 10.52,-9.66 4.83,-3.05 8.82,-7.17 13.29,-10.68 z"
         inkscape:connector-curvature="0"
         style="fill:#9e9f9d" />
      <path
         id="path4549"
         d="m 190.38,371.27 c 0.34,-0.05 1.02,-0.15 1.36,-0.2 4.46,3.15 8.35,7.11 11.7,11.41 0.71,1.19 2.27,2.61 1.09,4.03 -2.82,4.09 -5.54,8.49 -9.49,11.56 -5.34,-4.18 -11.06,-8.33 -14.71,-14.15 2.05,-4.91 6.09,-9.08 10.05,-12.65 z"
         inkscape:connector-curvature="0"
         style="fill:#0d0906" />
      <path
         id="path4551"
         d="m 435.46,382.58 c 3.48,-4.64 7.79,-8.61 12.44,-12.05 4.25,3.89 8.31,8.12 10.94,13.32 -3.87,5.89 -9.64,10.02 -14.98,14.44 -3.54,-3.58 -6.77,-7.5 -9.37,-11.82 -1.16,-1.36 0.27,-2.72 0.97,-3.89 z"
         inkscape:connector-curvature="0"
         style="fill:#0d0906" />
      <path
         id="path4557"
         d="m 295.24,393.35 c 0.59,1.13 1.75,2.11 1.71,3.49 0.19,4.26 0.13,8.53 -0.17,12.78 -0.63,-1.12 -1.8,-2.09 -1.74,-3.47 -0.19,-4.27 -0.14,-8.55 0.2,-12.8 z"
         inkscape:connector-curvature="0"
         style="fill:#fefefe" />
      <path
         id="path4559"
         d="m 329.8,407.02 c 4.19,-3.33 7.62,-7.51 12.01,-10.6 0.32,4.43 0.39,8.88 -0.01,13.32 -3.9,4.47 -9.32,6.83 -14.24,9.88 2.78,4.04 5.29,8.66 9.92,10.86 -1.43,2.18 -2.18,4.69 -2,7.31 -5.82,1.45 -11.1,5.61 -13.14,11.33 -0.49,2.84 1.99,4.85 3.63,6.8 -2.35,1.34 -4.69,2.69 -7.01,4.08 -2.34,-1.13 -4.68,-2.24 -7.02,-3.36 0.3,-0.4 0.89,-1.19 1.19,-1.59 1.95,0.96 3.91,1.92 5.87,2.88 0.21,-13.63 -0.42,-27.31 0.25,-40.91 3.29,-3.54 7.01,-6.7 10.55,-10 z"
         inkscape:connector-curvature="0"
         style="fill:#fefefe" />
      <path
         id="path4561"
         d="m 160.26,407.63 c 4.66,-2.3 7.82,-6.5 11.66,-9.85 -1.59,3.03 -3.37,5.96 -5.06,8.93 2.81,1.4 5.71,2.83 7.75,5.32 -5.24,0.55 -9.75,-2.44 -14.35,-4.4 z"
         inkscape:connector-curvature="0"
         style="fill:#0d0906" />
      <path
         id="path4563"
         d="m 467.04,397.73 c 3.87,3.31 6.9,7.7 11.7,9.8 -4.56,2.13 -9.12,5 -14.37,4.53 1.9,-2.86 5.4,-3.66 8.03,-5.61 -1.97,-2.79 -3.92,-5.61 -5.36,-8.72 z"
         inkscape:connector-curvature="0"
         style="fill:#0d0906" />
      <path
         id="path4565"
         transform="scale(0.8,0.8)"
         d="m 244.375,514.9375 c -2.746,0.0619 -5.35625,0.84063 -7.625,2.875 -5.375,3.45 -9.95,9.325 -8.9375,16.0625 1.525,7.8 6.7625,14.56875 13.375,18.84375 6.075,4.1875 12.325,9.60625 20.125,9.59375 6.225,-0.425 12.95625,-2.80625 16.46875,-8.28125 3.275,-4.7625 3.8,-10.7 3.6875,-16.3125 2.375,2.6125 4.86875,5.14375 7.53125,7.46875 -3.7125,-14.3 -17.775,-22.775 -30.9375,-27.1875 -4.20312,-1.28906 -9.11084,-3.16565 -13.6875,-3.0625 z m -3.46875,7.53125 c 4.32618,-0.0567 8.725,1.50313 12.78125,2.84375 0.0375,4.35 0.81875,9.06875 -1.46875,13.03125 -2.6375,5.15 -7.50625,10.4875 -13.90625,9.3125 -1.25,-4.9125 -6.46875,-7.45625 -7.40625,-12.46875 -1.0625,-4.0875 -0.1875,-9.69375 4.1875,-11.46875 1.88672,-0.85156 3.84605,-1.22424 5.8125,-1.25 z"
         style="fill:#0d0906"
         inkscape:connector-curvature="0" />
      <path
         id="path4567"
         d="m 276.95,421 c 1.86,-2.6 1.16,-6.24 2.12,-9.25 2.92,2.12 6.27,4.1 8.01,7.37 0.16,5 -0.77,9.94 -1.25,14.9 -0.39,2.37 -0.43,4.97 -1.8,7.05 -5.56,-2.98 -9.37,-8.35 -14.84,-11.47 -2.45,-3.08 -0.91,-7.13 -1.05,-10.7 2.85,0.87 5.73,3.18 8.81,2.1 z"
         inkscape:connector-curvature="0"
         style="fill:#0d0906" />
      <path
         id="path4569"
         d="m 351.9,419.12 c 1.78,-3.3 5.14,-5.33 8.16,-7.38 0.67,3.49 0.97,7.04 1.01,10.59 3.38,-0.79 6.6,-2.13 9.81,-3.45 -0.3,3.47 1.74,7.91 -1.62,10.41 -4.41,4.33 -9.27,8.2 -14.15,12 -1.51,-2.47 -1.73,-5.42 -2.05,-8.22 -0.46,-4.64 -1.31,-9.27 -1.16,-13.95 z"
         inkscape:connector-curvature="0"
         style="fill:#0d0906" />
      <path
         id="path4571"
         transform="scale(0.8,0.8)"
         d="m 554.0625,515.0625 c -7.91807,0.2061 -15.50156,3.63437 -22.6875,6.71875 -9.55,4.8875 -19.05625,12.425 -21.59375,23.375 2.55,-2.6375 4.98125,-5.375 7.59375,-7.9375 0.25,4.575 0.4875,9.2 1.8125,13.625 3.5875,8.475 13.85,12.99375 22.625,10.90625 7.3875,-2.2 13.34375,-7.4125 19.46875,-11.875 6.5875,-5.8125 12.50625,-15.64375 8.15625,-24.40625 -2.575,-4.6625 -7.24375,-8.05625 -11.96875,-10.28125 -1.14531,-0.1125 -2.2751,-0.15444 -3.40625,-0.125 z m 3.09375,7.40625 c 1.87175,-0.0488 3.75,0.19531 5.59375,0.90625 4.65,1.2 6.225,6.7875 5.25,11 -0.7125,5.4 -6.01875,8.26875 -7.78125,13.21875 -6.4375,1.3375 -10.88125,-4.18125 -13.65625,-9.15625 -2.2875,-3.9875 -1.50625,-8.71875 -1.53125,-13.09375 3.89297,-1.22031 8.00715,-2.76765 12.125,-2.875 z"
         style="fill:#0d0906"
         inkscape:connector-curvature="0" />
      <path
         id="path4577"
         d="m 302.27,443.24 c 2.79,-0.48 6.77,-0.9 8.07,2.34 2.66,3.85 -2.85,9.22 -6.72,6.87 -3.59,-1.39 -5.27,-7.18 -1.35,-9.21 z"
         inkscape:connector-curvature="0"
         style="fill:#0d0906" />
      <path
         id="path4579"
         d="m 331.07,443.17 c 2.73,-0.47 6.13,-0.56 7.78,2.13 0.88,3.07 -1.19,6.32 -4.06,7.42 -3.83,1.64 -8.6,-3.56 -6.12,-7.15 0.52,-1.02 1.31,-1.97 2.4,-2.4 z"
         inkscape:connector-curvature="0"
         style="fill:#0d0906" />
      <path
         id="path4581"
         d="m 301.72,445.35 c 2.4,0.79 3.73,2.78 3.61,5.32 -2.49,-0.66 -3.08,-3.17 -3.61,-5.32 z"
         inkscape:connector-curvature="0"
         style="fill:#fefefe" />
      <path
         id="path4583"
         d="m 334.76,450.49 c -2.63,-1.61 0.63,-4.59 2.53,-5.15 -0.55,1.83 -0.96,3.87 -2.53,5.15 z"
         inkscape:connector-curvature="0"
         style="fill:#fefefe" />
      <path
         id="path4585"
         d="m 383.07,446.24 c -3.96,4.72 -8.69,8.91 -14.25,11.64 4.01,-4.7 9.01,-8.43 14.25,-11.64 z"
         inkscape:connector-curvature="0"
         style="fill:#0d0906" />
      <path
         id="path4587"
         d="m 257.94,447.81 c 4.74,2.54 8.87,6.12 12.19,10.32 -4.68,-2.59 -9.09,-5.89 -12.19,-10.32 z"
         inkscape:connector-curvature="0"
         style="fill:#0d0906" />
      <path
         id="path4589"
         d="m 319,462.17 c 2.88,-1.78 5.72,-3.91 9.15,-4.47 3.91,0.79 7.69,2.26 11.01,4.5 0.04,3.27 -1.62,6.1 -3.26,8.8 -5.63,0.03 -11.27,0.02 -16.9,0 0,-2.95 0,-5.89 0,-8.83 z"
         inkscape:connector-curvature="0"
         style="fill:#fefefe" />
      <path
         id="path4593"
         d="m 222.14,477.98 c 0.68,0 2.04,-0.01 2.73,-0.01 1.06,1.64 2.01,3.34 2.82,5.13 -1.57,0.35 -3.14,0.68 -4.71,1.03 -2.24,-1.56 -2.28,-3.99 -0.84,-6.15 z"
         inkscape:connector-curvature="0"
         style="fill:#9e9f9d" />
      <path
         id="path4595"
         d="m 414.15,477.98 c 0.66,0 1.98,0.01 2.64,0.02 0.34,0.49 1.02,1.48 1.36,1.97 -0.15,1.45 0.08,3.15 -1.36,4.05 -1.75,0.16 -3.43,-0.4 -4.98,-1.14 0.83,-1.62 1.55,-3.27 2.34,-4.9 z"
         inkscape:connector-curvature="0"
         style="fill:#9e9f9d" />
      <path
         id="path4597"
         d="m 224.29,489.07 c 2.15,-3.98 7.01,-3.16 10.76,-2.9 -3.21,2.08 -6.99,2.83 -10.76,2.9 z"
         inkscape:connector-curvature="0"
         style="fill:#9e9f9d" />
      <path
         id="path4599"
         d="m 404.48,486.09 c 3.59,-0.2 8.21,-0.85 10.21,2.98 -3.55,-0.26 -7.46,-0.4 -10.21,-2.98 z"
         inkscape:connector-curvature="0"
         style="fill:#9e9f9d" />
      <path
         id="path4601"
         d="m 214.92,487.77 c 2.78,-1.27 5.9,-0.71 8.85,-0.7 -1.67,2.76 -5.06,2.68 -7.86,3.15 -0.25,-0.61 -0.74,-1.83 -0.99,-2.45 z"
         inkscape:connector-curvature="0"
         style="fill:#9e9f9d" />
      <path
         id="path4603"
         d="m 415.31,487.07 c 3.14,0.03 6.96,-1.03 9.37,1.64 -2.87,2.18 -7.45,1.41 -9.37,-1.64 z"
         inkscape:connector-curvature="0"
         style="fill:#9e9f9d" />
      <path
         id="path4605"
         d="m 306.79,506.67 c 4.94,3.71 9.29,8.17 12.82,13.24 3.22,-5.24 7.74,-9.48 12.56,-13.22 -1.4,7.71 -3.25,15.42 -3.17,23.32 0.12,7.05 -0.54,14.25 1.36,21.14 1.7,7.46 6.85,13.97 6.73,21.87 0.24,7.75 -0.02,16.12 -4.31,22.88 -2.67,2.19 -6.62,0.77 -9.81,1.17 -5.25,-0.12 -10.52,0.26 -15.74,-0.27 -3.38,-3.2 -4.13,-8.25 -4.93,-12.64 -0.62,-7 -1.16,-14.44 1.8,-21.02 2.99,-6.67 5.58,-13.7 5.85,-21.08 0.11,-4.34 0.02,-8.69 0.05,-13.03 0.1,-7.59 -2.31,-14.88 -3.21,-22.36 z"
         inkscape:connector-curvature="0"
         style="fill:#0d0906" />
      <path
         id="path4607"
         d="m 213.44,514.33 c 0.98,-2.62 2.41,-5.26 5.36,-5.97 0.54,1.91 1.06,3.83 1.52,5.77 -2.27,0.45 -4.59,0.58 -6.88,0.2 z"
         inkscape:connector-curvature="0"
         style="fill:#9e9f9d" />
      <path
         id="path4609"
         d="m 420.19,508.38 c 2.94,0.72 4.43,3.33 5.34,5.99 -2.23,0.31 -4.49,0.21 -6.69,-0.21 0.43,-1.93 0.89,-3.86 1.35,-5.78 z"
         inkscape:connector-curvature="0"
         style="fill:#9e9f9d" />
      <path
         id="path4611"
         d="m 220.02,517.84 c 4.73,-1.31 9.7,-1.47 14.56,-1.81 -2.92,2.67 -6.93,3.03 -10.69,3.34 -1.2,0.1 -4.58,0.75 -3.87,-1.53 z"
         inkscape:connector-curvature="0"
         style="fill:#9e9f9d" />
      <path
         id="path4613"
         d="m 404.44,516.04 c 4.82,0.35 9.8,0.39 14.44,1.82 1.29,1.7 -1.87,1.71 -2.8,1.6 -4.04,-0.4 -8.48,-0.5 -11.64,-3.42 z"
         inkscape:connector-curvature="0"
         style="fill:#9e9f9d" />
      <path
         id="path4615"
         d="m 210.25,517.05 c 2.52,-0.08 5.04,-0.08 7.57,-0.02 -1.17,1.16 -2.12,2.85 -3.87,3.17 -1.69,-0.35 -2.6,-2 -3.7,-3.15 z"
         inkscape:connector-curvature="0"
         style="fill:#9e9f9d" />
      <path
         id="path4617"
         d="m 421.25,517.04 c 2.5,-0.07 5.01,-0.07 7.52,0.01 -1.13,1.15 -2.06,2.86 -3.81,3.15 -1.71,-0.35 -2.62,-1.99 -3.71,-3.16 z"
         inkscape:connector-curvature="0"
         style="fill:#9e9f9d" />
      <path
         id="path4619"
         d="m 206.61,534.97 c 0.38,-2.11 0.13,-5.81 3.37,-5.03 1.15,1.45 0.57,3.33 0.6,5.03 2.04,0 4.09,0.02 6.13,0.14 -2.63,3.48 -6.98,1.31 -10.1,-0.14 z"
         inkscape:connector-curvature="0"
         style="fill:#9e9f9d" />
      <path
         id="path4621"
         d="m 428.38,534.97 c 0.09,-1.67 -0.5,-3.56 0.61,-4.98 3.15,-0.95 3.1,2.94 3.38,4.99 -3.13,1.46 -7.46,3.59 -10.09,0.13 2.03,-0.12 4.07,-0.14 6.1,-0.14 z"
         inkscape:connector-curvature="0"
         style="fill:#9e9f9d" />
      <path
         id="path4623"
         d="m 302,606.24 c 0.08,-3.7 2.95,-6.44 5.92,-8.21 4.06,-0.26 8.03,1.03 12.09,0.78 3.94,-0.25 7.83,-0.94 11.78,-0.93 2.19,2.51 4.13,5.23 5.83,8.1 -4.67,1.07 -9.37,2.02 -14.06,3.02 l -8.17,0 c -4.48,-0.86 -8.97,-1.66 -13.39,-2.76 z"
         inkscape:connector-curvature="0"
         style="fill:#0d0906" />
    </g>
  </g>
</svg>
